<?xml version="1.0" standalone="no"?>
<!DOCTYPE svg PUBLIC "-//W3C//DTD SVG 1.1//EN" "http://www.w3.org/Graphics/SVG/1.1/DTD/svg11.dtd" >
<svg>
<metadata>
Created by FontForge 20090622 at Wed Mar  5 05:03:04 2014
 By ffonts
1.2, Copyright Copr. Castcraft Software, Inc. 1990-1991.
</metadata>
<defs>
<font id="OPTIDeRoos-Italic" horiz-adv-x="475" >
  <font-face 
    font-family="OPTIDeRoos-Italic"
    font-weight="400"
    font-style="italic"
    font-stretch="normal"
    units-per-em="1000"
    panose-1="2 0 6 6 8 0 0 9 0 4"
    ascent="800"
    descent="-200"
    x-height="380"
    cap-height="616"
    bbox="-71 -270.016 891 793"
    underline-thickness="50"
    underline-position="-50"
    slope="-12"
    stemh="18"
    stemv="54"
    unicode-range="U+0020-U+FB02"
  />
<missing-glyph horiz-adv-x="458" 
 />
    <glyph glyph-name=".notdef" horiz-adv-x="458" 
 />
    <glyph glyph-name="exclam" unicode="!" horiz-adv-x="204" 
d="M209 537l-90 -389c-2 -10 -3 -13 -5 -14c-3 0 -5 5 -4 13l36 386c2 20 5 31 39 31c25 0 28 -9 24 -27zM72 31c0 18 13 41 33 42c17 0 28 -14 28 -38c0 -18 -14 -40 -33 -40c-17 0 -28 13 -28 36z" />
    <glyph glyph-name="quotedbl" unicode="&#x22;" horiz-adv-x="194" 
d="M135 615c24 0 27 -29 23 -86l-17 -220h-14l-16 220c-4 57 -1 86 24 86zM212 615c24 0 27 -29 22 -86l-16 -220h-14l-16 220c-4 57 -1 86 24 86z" />
    <glyph glyph-name="numbersign" unicode="#" horiz-adv-x="646" 
d="M346 632h40l-72 -209h161l72 209h39l-72 -209h157l-11 -32h-156l-56 -163h155l-10 -32h-156l-71 -204h-39l70 204h-161l-70 -204h-40l71 204h-153l11 32h153l56 163h-153l11 32h152zM247 228h161l56 163h-161z" />
    <glyph glyph-name="dollar" unicode="$" horiz-adv-x="406" 
d="M167 -1v-1c-60 16 -109 67 -127 110c-2 6 -3 10 5 14c50 23 46 38 59 39c5 0 10 -4 10 -10c0 -11 -16 -22 -16 -45c0 -24 25 -68 73 -84l53 266c-73 49 -111 76 -111 148c0 82 65 139 164 139l4 17c2 9 5 13 12 14c6 0 11 -5 10 -15l-3 -18c39 -8 81 -30 103 -50
c9 -8 -2 -10 -19 -24c-19 -17 -20 -23 -28 -13c-19 27 -38 44 -63 53l-40 -207c86 -58 130 -87 129 -175c0 -92 -72 -162 -176 -163c-5 0 -13 1 -17 1l-4 -23c-1 -9 -6 -14 -13 -14s-12 5 -10 15zM273 546v-1c-11 3 -21 4 -32 4c-57 0 -87 -49 -87 -98c0 -39 25 -68 80 -107
zM193 14l1 1c6 -1 13 -2 20 -2c70 0 125 55 125 128c0 57 -26 84 -96 134z" />
    <glyph glyph-name="percent" unicode="%" horiz-adv-x="607" 
d="M115 382c0 -97 36 -134 79 -134c81 0 110 127 110 193c0 96 -35 133 -79 133c-81 0 -110 -127 -110 -192zM136 11l1 1c-10 -13 -15 -17 -23 -18c-6 0 -7 6 1 17l425 552c9 11 15 16 22 16c6 0 7 -6 -1 -17zM188 239h1c-58 0 -106 54 -107 149c0 84 55 198 149 198
c58 0 106 -53 106 -149c0 -83 -55 -198 -149 -198zM379 138v1c0 -96 36 -133 79 -133c81 0 110 127 110 192c0 97 -35 134 -79 133c-81 0 -110 -127 -110 -193zM451 -3c-58 0 -106 53 -106 149c0 83 55 198 149 198c58 0 106 -54 106 -149c0 -84 -56 -198 -149 -198z" />
    <glyph glyph-name="ampersand" unicode="&#x26;" horiz-adv-x="562" 
d="M445 508c0 -8 -8 -9 -23 -15c-15 -7 -31 -21 -31 -11c0 11 -3 18 -7 23c-17 28 -58 48 -93 48c-46 0 -90 -50 -90 -107c0 -77 60 -99 81 -99c5 0 10 2 17 2c6 0 12 -16 -5 -16c-130 0 -175 -84 -175 -164c0 -100 90 -141 155 -141c82 0 189 56 189 173c0 23 -9 47 -20 54
c-73 -12 -127 -34 -127 -67c0 -15 15 -30 14 -37c0 -6 -6 -8 -9 -5c-17 17 -31 38 -30 58c0 67 70 80 117 92l53 12c74 18 104 36 104 68c0 15 -9 28 -28 27c-16 0 -29 -17 -35 -17c-4 0 -17 23 -16 28c0 5 18 14 33 14c33 0 63 -25 64 -59c0 -37 -24 -75 -100 -105
c12 -149 -69 -269 -243 -270c-105 0 -177 70 -177 158c0 92 56 166 143 193c-29 16 -57 41 -57 79c0 103 102 151 174 151c82 0 122 -56 122 -67z" />
    <glyph glyph-name="quotesingle" unicode="'" horiz-adv-x="135" 
d="M141 615c24 0 27 -29 23 -86l-17 -220h-12l-19 220c-4 57 0 86 25 86z" />
    <glyph glyph-name="parenleft" unicode="(" horiz-adv-x="245" 
d="M308 646v-1c9 8 19 -2 10 -13c-145 -199 -204 -440 -203 -640c0 -177 32 -234 32 -251c0 -15 -12 -13 -16 -4c-20 43 -62 158 -62 317c0 205 82 454 239 592z" />
    <glyph glyph-name="parenright" unicode=")" horiz-adv-x="245" 
d="M-20 -267c-9 -8 -19 2 -11 13c146 199 205 440 205 640c0 177 -33 234 -33 251c0 15 13 13 16 5c20 -43 62 -158 62 -318c0 -205 -82 -454 -239 -591z" />
    <glyph glyph-name="asterisk" unicode="*" horiz-adv-x="264" 
d="M215 514c0 -16 64 -11 64 -30c0 -10 -10 -31 -31 -31s-30 48 -42 48c-6 0 -13 -13 -13 -28c0 -37 -11 -59 -32 -59c-6 0 -15 4 -15 11c0 21 40 59 40 69c0 5 -2 7 -5 7c-6 0 -60 -48 -78 -48c-6 0 -14 5 -14 16c0 42 93 28 93 47c0 16 -64 11 -64 29c0 10 10 32 31 32
s30 -48 42 -48c6 0 13 13 13 28c0 36 11 58 33 59c6 0 15 -4 15 -12c0 -21 -40 -59 -41 -69c0 -4 3 -6 6 -6c6 0 60 47 78 47c6 0 14 -4 13 -15c0 -42 -93 -28 -93 -47z" />
    <glyph glyph-name="plus" unicode="+" horiz-adv-x="613" 
d="M330 563h28v-267h267v-29h-267v-267h-28v267h-268v29h268v267z" />
    <glyph glyph-name="comma" unicode="," horiz-adv-x="155" 
d="M51 -65h1c-5 -1 -8 1 -8 6s36 26 36 55c0 10 -23 15 -24 38c0 27 16 40 34 40c16 0 32 -14 32 -38c0 -34 -19 -77 -71 -101z" />
    <glyph glyph-name="hyphen" unicode="-" horiz-adv-x="287" 
d="M242 209h-1c24 0 28 7 36 8c5 0 4 -3 -3 -25c-8 -28 -7 -18 -32 -18h-151c-25 0 -28 -8 -35 -8c-5 0 -5 4 1 25c8 28 8 18 34 18h151z" />
    <glyph glyph-name="period" unicode="." horiz-adv-x="137" 
d="M44 31c0 18 13 41 31 42c18 0 29 -14 30 -38c0 -18 -14 -40 -33 -40c-17 0 -28 13 -28 36z" />
    <glyph glyph-name="slash" unicode="/" horiz-adv-x="462" 
d="M60 8l-1 1c-10 -13 -22 -4 -11 9l439 561c10 13 22 3 12 -9z" />
    <glyph glyph-name="zero" unicode="0" 
d="M313 575c128 0 177 -134 177 -247c0 -148 -92 -333 -256 -334c-127 0 -176 134 -177 248c0 148 92 333 256 333zM110 244c0 -114 35 -228 136 -229c141 0 192 208 192 313c0 114 -35 228 -136 228c-141 0 -192 -207 -192 -312z" />
    <glyph glyph-name="one" unicode="1" 
d="M344 581l-77 -473c-9 -56 -9 -73 -9 -89l69 1c9 0 12 -4 12 -11c0 -6 -2 -9 -12 -9h-163c-9 0 -13 2 -13 8c0 14 19 9 25 13c17 6 30 17 44 100l56 349c8 49 2 76 -4 76c-12 0 -36 -4 -46 -4c-8 0 -7 10 1 11c37 4 83 13 117 28z" />
    <glyph glyph-name="two" unicode="2" 
d="M137 52l174 -7c33 -1 72 1 85 26c13 23 17 49 27 49c5 0 6 -5 6 -9c0 -12 -15 -38 -25 -78c-13 -49 -8 -58 -20 -58c-15 0 -1 25 -20 25h-262c-37 0 -40 -14 -49 -14c-6 0 -12 9 -2 19l230 212c86 80 129 135 129 194c0 49 -38 120 -129 120c-75 0 -136 -54 -136 -113
c0 -36 31 -59 30 -64c0 -4 -28 -26 -36 -26c-9 0 -25 46 -25 71c0 84 94 176 199 176c70 0 154 -56 155 -159c0 -64 -39 -101 -104 -160z" />
    <glyph glyph-name="three" unicode="3" 
d="M324 338h1c72 -29 112 -73 112 -147c0 -114 -107 -196 -216 -197c-88 0 -172 55 -171 112c0 8 5 10 16 13c11 4 19 5 22 -1c13 -47 43 -106 135 -106c102 0 160 88 160 157c0 88 -71 135 -120 135c-37 0 -62 -24 -63 -10c0 7 4 10 17 16c61 24 166 64 165 143
c0 50 -29 80 -89 80c-66 0 -109 -34 -134 -77c-3 -3 -14 2 -13 6c38 86 104 113 182 113c74 0 106 -62 106 -115c0 -67 -56 -99 -110 -122z" />
    <glyph glyph-name="four" unicode="4" 
d="M109 254h231l46 288s-63 -58 -145 -145zM365 108h1c-10 -56 -10 -73 -10 -89l69 1c9 0 12 -4 12 -11c0 -6 -2 -9 -12 -9h-162c-9 0 -14 2 -14 8c0 14 19 9 25 13c17 6 30 17 44 100l14 83h-288l185 202c112 117 200 198 201 199c7 7 9 8 12 8c5 0 6 -2 4 -12l-57 -348
c55 0 51 36 62 37c8 0 7 -6 -15 -51l-17 -35h-37z" />
    <glyph glyph-name="five" unicode="5" 
d="M436 590v-1c7 0 8 -7 -4 -28c-9 -16 -19 -40 -19 -40h-243l-26 -159c37 11 80 20 118 20c92 0 179 -62 180 -171c0 -112 -100 -216 -239 -216c-71 0 -125 29 -142 94c-2 7 3 7 16 15c9 6 17 11 19 3c11 -47 45 -95 121 -95c111 0 169 98 168 184c0 59 -29 132 -128 132
c-83 0 -121 -35 -134 -35c-8 0 -13 9 -3 60l44 217h227c35 0 34 20 45 20z" />
    <glyph glyph-name="six" unicode="6" 
d="M388 583h1c9 4 13 -6 5 -10c-89 -55 -274 -165 -274 -359c0 -119 53 -201 144 -201c81 0 137 98 138 172c0 119 -70 158 -122 159c-38 0 -76 -26 -109 -60c-4 -4 -10 0 -7 6c30 47 100 102 149 102c63 0 138 -67 138 -167c0 -151 -106 -230 -199 -231
c-109 0 -183 89 -183 209c0 161 146 306 319 380z" />
    <glyph glyph-name="seven" unicode="7" 
d="M140 585v1c12 0 12 -16 60 -16l260 -1c27 0 29 5 40 6c5 0 7 -6 -5 -24l-271 -389c-34 -49 -44 -70 -43 -104c0 -33 5 -43 5 -53c0 -6 -8 -4 -26 -9c-9 -2 -13 -4 -20 -4c-5 0 -9 31 -9 42c0 38 20 74 48 113l270 374l-214 5c-100 2 -101 -23 -115 -69
c-3 -10 -6 -13 -9 -13c-4 0 -7 2 -6 8c0 5 6 26 12 56c14 64 13 77 23 77z" />
    <glyph glyph-name="eight" unicode="8" 
d="M324 322c74 -62 109 -104 109 -160c0 -67 -54 -167 -189 -167c-105 0 -179 60 -179 148c0 69 39 137 173 175c-51 41 -85 75 -85 120c0 53 37 137 146 137c95 0 151 -56 151 -119s-46 -103 -126 -134zM398 456c0 71 -55 101 -104 100c-62 0 -95 -49 -96 -94
c0 -43 37 -74 106 -125c71 27 94 77 94 119zM115 147c0 -54 34 -132 131 -132c89 0 138 65 138 119c0 62 -44 102 -125 168c-103 -28 -144 -98 -144 -155z" />
    <glyph glyph-name="nine" unicode="9" 
d="M147 -15l1 1c-9 -4 -13 7 -6 10c89 56 274 166 274 360c0 119 -52 201 -144 201c-81 0 -137 -98 -138 -174c0 -118 70 -158 121 -158c38 0 76 27 110 61c4 4 10 -1 7 -6c-30 -47 -100 -102 -149 -102c-64 0 -139 66 -139 167c0 151 106 230 200 230
c109 0 183 -89 183 -208c0 -162 -145 -307 -320 -382z" />
    <glyph glyph-name="colon" unicode=":" horiz-adv-x="164" 
d="M49 31c0 18 14 41 33 42c17 0 28 -14 28 -38c0 -18 -14 -40 -33 -40c-17 0 -28 13 -28 36zM101 323l-1 1c0 18 14 40 33 40c17 0 28 -13 28 -36c0 -18 -14 -41 -32 -42c-17 0 -28 14 -28 37z" />
    <glyph glyph-name="semicolon" unicode=";" horiz-adv-x="164" 
d="M107 323v1c0 18 14 40 33 40c17 0 28 -13 28 -36c0 -18 -14 -41 -33 -42c-17 0 -28 14 -28 37zM46 -64c-4 -1 -8 1 -8 6s37 26 37 55c0 10 -23 15 -23 38c0 27 15 40 33 40c16 0 31 -14 31 -38c0 -34 -19 -77 -70 -101z" />
    <glyph glyph-name="less" unicode="&#x3c;" horiz-adv-x="508" 
d="M494 454l-405 -174l405 -176v-44l-445 188v64l445 189v-47z" />
    <glyph glyph-name="equal" unicode="=" horiz-adv-x="629" 
d="M75 406h559v-43h-559v43zM75 194h559v-43h-559v43z" />
    <glyph glyph-name="greater" unicode="&#x3e;" horiz-adv-x="508" 
d="M526 248l-446 -188v44l403 176l-403 174v47l446 -189v-64z" />
    <glyph glyph-name="question" unicode="?" horiz-adv-x="264" 
d="M123 142l-1 -1c3 -7 -6 -14 -11 -5c-15 21 -28 50 -28 76c0 38 19 70 64 109l20 17c52 45 87 80 87 125c0 31 -20 67 -55 67c-42 0 -65 -43 -77 -42c-5 0 -18 28 -17 35c0 5 29 44 67 44c63 0 112 -71 111 -138c0 -50 -27 -76 -99 -140l-22 -18c-36 -32 -52 -51 -52 -75
c0 -15 7 -40 13 -54zM63 30c0 18 13 41 32 42c18 0 29 -14 29 -38c0 -18 -14 -40 -33 -40c-17 0 -28 13 -28 36z" />
    <glyph glyph-name="at" unicode="@" horiz-adv-x="793" 
d="M525 168c-44 -59 -82 -79 -132 -79c-68 0 -129 46 -129 144c0 101 73 240 194 240c53 0 108 -27 124 -108l29 97h25l-64 -209c-25 -82 -20 -138 46 -138c82 0 159 99 158 230c0 178 -138 277 -308 277c-211 0 -377 -161 -378 -369c0 -223 178 -331 370 -331
c93 0 196 37 284 96l10 -15c-96 -71 -201 -102 -313 -102c-202 0 -376 118 -376 356c0 204 158 389 402 389c176 0 332 -99 332 -296c0 -167 -93 -260 -189 -261c-35 0 -78 15 -85 79zM288 228v1c0 -68 45 -115 107 -116c107 0 167 157 167 225c0 59 -34 111 -105 110
c-114 0 -169 -148 -169 -220z" />
    <glyph glyph-name="A" unicode="A" horiz-adv-x="582" 
d="M199 254h217l-51 274zM29 0h1c-5 0 -7 3 -8 6c0 6 5 11 16 12c29 0 19 19 50 72l302 525c10 17 13 21 18 21c10 0 1 -12 5 -33l99 -546c6 -30 21 -40 44 -40c12 0 15 0 15 -6c0 -3 -5 -11 -14 -11c-24 0 -47 2 -74 2c-24 0 -50 -2 -78 -2c-5 0 -8 2 -8 6s5 11 14 12
c26 0 46 18 30 103l-21 112h-232l-34 -58c-22 -38 -45 -82 -45 -120c0 -26 15 -38 34 -38l37 1c6 0 8 -3 7 -7c0 -5 -7 -11 -12 -11c-24 0 -45 2 -78 2c-22 0 -45 -2 -68 -2z" />
    <glyph glyph-name="B" unicode="B" horiz-adv-x="500" 
d="M445 472v-1c0 100 -64 132 -128 132c-18 0 -51 -5 -63 -10l-41 -252c21 -2 40 -3 55 -3c76 0 177 31 177 134zM163 37v-1c28 -18 72 -28 105 -28c139 0 183 116 183 169c0 77 -53 145 -193 145c-19 0 -36 -2 -49 -2zM214 612c34 0 94 8 147 8c106 0 145 -78 144 -135
c0 -77 -62 -134 -135 -153c72 -6 138 -59 138 -145c0 -119 -95 -194 -263 -194c-39 0 -85 7 -123 7c-35 0 -47 -2 -70 -2c-7 0 -8 2 -8 6c0 5 5 11 11 11c26 0 40 10 48 63l81 492c3 21 -2 26 -19 26h-38c-6 0 -8 2 -8 7s6 10 13 11c28 0 52 -2 82 -2z" />
    <glyph glyph-name="C" unicode="C" horiz-adv-x="603" 
d="M587 582c2 8 6 21 6 28c3 11 21 8 18 -6c-10 -42 -19 -94 -26 -140c-1 -10 -18 -9 -18 3c1 9 5 35 8 49c-11 36 -97 89 -182 89c-106 0 -258 -115 -259 -305c0 -220 158 -291 229 -291c51 0 118 27 140 51c16 19 21 37 33 89c4 15 21 10 18 -2c-5 -19 -16 -72 -20 -89
c-4 -21 -6 -25 -15 -29c-38 -19 -90 -34 -149 -34c-178 0 -302 116 -302 277c0 195 148 350 332 350c52 0 123 -12 187 -40z" />
    <glyph glyph-name="D" unicode="D" horiz-adv-x="662" 
d="M246 552l-79 -489c-6 -36 65 -53 129 -53c265 0 311 217 311 327c0 176 -139 268 -241 268c-103 0 -114 -20 -120 -53zM52 0c-7 0 -8 2 -8 6c0 5 5 11 11 11c26 0 40 10 48 63l81 492c3 21 -2 26 -19 26h-38c-6 0 -8 2 -8 6c0 5 6 11 12 12c27 0 47 -2 82 -2
c45 0 87 8 165 8c241 0 293 -177 293 -293c0 -151 -95 -334 -357 -334c-55 0 -129 7 -188 7c-28 0 -50 -2 -74 -2z" />
    <glyph glyph-name="E" unicode="E" horiz-adv-x="503" 
d="M52 0c-7 0 -8 2 -8 6c0 5 5 11 11 11c26 0 40 10 48 63l81 492c3 21 -2 26 -19 26h-38c-6 0 -8 2 -8 6c0 5 6 11 11 12c27 0 86 -3 141 -4c111 0 232 3 232 4c0 -23 -8 -82 -16 -110c-3 -9 -17 -8 -18 2c0 5 5 23 6 36c0 24 9 49 -182 49h-39l-42 -258c16 -2 43 -2 82 -2
c93 0 102 2 109 7s10 15 23 59c5 17 21 7 19 -4c-14 -49 -25 -103 -28 -155c-1 -11 -20 -17 -20 -1c0 12 1 27 1 40c0 25 -27 38 -120 38c-23 0 -56 -1 -70 -2l-48 -292h55c218 0 217 27 226 72c10 49 12 52 18 52c5 0 10 -5 10 -11c0 -14 -13 -65 -22 -125
c-2 -13 -8 -16 -16 -15c-16 0 -3 9 -177 9c-167 0 -151 -5 -202 -5z" />
    <glyph glyph-name="F" unicode="F" horiz-adv-x="452" 
d="M164 43v-1c-3 -19 0 -25 16 -25l68 1c6 0 8 -3 8 -7c0 -6 -6 -11 -12 -11c-32 0 -74 2 -112 2c-30 0 -29 -2 -80 -2c-7 0 -8 2 -8 6c0 5 5 11 11 11c26 0 40 10 48 63l81 492c3 21 -2 26 -19 26h-38c-6 0 -8 2 -8 6c0 5 6 11 11 12c27 0 86 -3 141 -4c111 0 223 3 222 4
c0 -23 -7 -82 -14 -110c-3 -9 -17 -8 -18 2c0 5 5 23 6 36c0 24 17 49 -174 49h-39l-42 -258c16 -2 43 -2 81 -2c93 0 94 2 101 7c8 5 11 15 24 59c5 17 21 7 18 -4c-14 -49 -25 -103 -27 -155c-1 -11 -20 -17 -20 -1c0 12 1 27 1 40c0 25 -19 38 -112 38
c-23 0 -56 -1 -70 -2z" />
    <glyph glyph-name="G" unicode="G" horiz-adv-x="603" 
d="M593 610c3 11 21 8 18 -6c-10 -42 -19 -94 -26 -140c-1 -10 -18 -9 -18 3c1 9 5 35 8 49c-11 36 -97 89 -182 89c-106 0 -258 -115 -259 -305c0 -220 158 -291 230 -291c28 0 96 13 119 55c10 17 26 115 26 185c0 22 -5 24 -17 24h-51c-5 0 -8 1 -8 4c0 8 9 13 14 13
c20 0 58 -2 95 -2c27 0 54 2 77 2c3 0 8 0 8 -6s-6 -11 -13 -11c-26 0 -38 -14 -47 -68l-25 -148c-6 -37 -106 -62 -172 -62c-178 0 -302 116 -302 277c0 195 148 350 332 350c52 0 121 -11 187 -40c2 8 6 21 6 28z" />
    <glyph glyph-name="H" unicode="H" horiz-adv-x="616" 
d="M213 346l-49 -303c-3 -21 1 -26 18 -26l38 1c6 0 8 -2 8 -7s-6 -11 -12 -11c-27 0 -56 2 -90 2c-27 0 -51 -2 -74 -2c-7 0 -8 2 -8 6c0 5 5 11 11 11c26 0 40 10 48 63l81 492c3 21 -2 26 -19 26h-38c-6 0 -8 2 -8 6c0 5 6 11 12 12c27 0 56 -2 90 -3c27 0 52 2 74 3
c7 0 9 -2 9 -7s-6 -11 -12 -11c-26 0 -40 -10 -48 -62l-28 -167h289l33 203c4 21 -1 26 -18 26h-38c-7 0 -9 2 -8 6c0 5 7 11 12 12c27 0 56 -2 89 -3c27 0 52 2 75 3c6 0 8 -2 8 -7s-6 -11 -12 -11c-25 0 -39 -10 -47 -62l-81 -493c-3 -21 2 -26 19 -26l37 1c7 0 8 -2 8 -7
s-6 -11 -11 -11c-27 0 -56 2 -90 2c-28 0 -52 -2 -75 -2c-6 0 -8 2 -7 6c0 5 5 11 11 12c25 0 39 10 48 62l44 266h-289z" />
    <glyph glyph-name="I" unicode="I" horiz-adv-x="262" 
d="M244 536l-80 -493c-3 -21 1 -26 18 -26l38 1c6 0 8 -2 8 -7s-6 -11 -12 -11c-27 0 -56 2 -90 2c-27 0 -51 -2 -74 -2c-7 0 -8 2 -8 6c0 5 5 11 11 11c26 0 40 10 48 63l81 492c3 21 -2 26 -19 26h-38c-6 0 -8 2 -8 6c0 5 6 11 12 12c27 0 56 -2 90 -3c27 0 52 2 74 3
c7 0 9 -2 9 -7s-6 -11 -12 -11c-26 0 -40 -10 -48 -62z" />
    <glyph glyph-name="J" unicode="J" horiz-adv-x="262" 
d="M176 527v-1c11 67 -1 72 -24 72h-62c-6 0 -7 4 -6 6c0 6 7 11 12 12c29 0 68 -2 108 -3c33 0 67 2 91 3c5 0 9 -2 9 -5c0 -9 -9 -13 -14 -13c-24 0 -38 -10 -46 -62l-91 -561c-28 -171 -137 -227 -151 -226c-13 0 -42 28 -42 37c0 6 35 27 42 27c8 0 23 -23 31 -23
c6 0 26 20 37 84z" />
    <glyph glyph-name="K" unicode="K" horiz-adv-x="560" 
d="M212 334l189 159c52 44 69 69 68 85c0 18 -18 20 -36 20c-5 0 -9 2 -9 5c0 6 6 12 15 13c39 0 52 -2 74 -3c17 0 34 2 63 3c5 0 8 -3 8 -6c0 -7 -5 -12 -13 -12c-16 0 -20 -2 -76 -51l-242 -210l200 -257c49 -62 67 -63 97 -63c3 0 8 -1 7 -6c0 -6 -6 -11 -13 -11
c-25 0 -66 4 -105 -1c-4 8 -13 23 -31 46l-203 254l-41 -256c-3 -21 1 -26 18 -26l38 1c6 0 8 -2 8 -7s-6 -11 -12 -11c-27 0 -56 2 -90 2c-27 0 -51 -2 -74 -2c-7 0 -8 2 -8 6c0 5 5 11 11 11c26 0 40 10 48 63l81 492c3 21 -2 26 -19 26h-38c-6 0 -8 2 -8 6
c0 5 6 11 12 12c27 0 56 -2 90 -3c27 0 52 2 74 3c7 0 9 -2 9 -7s-6 -11 -11 -11c-26 0 -41 -10 -49 -62z" />
    <glyph glyph-name="L" unicode="L" horiz-adv-x="455" 
d="M215 23c218 0 203 27 213 72c10 49 12 52 18 52c5 0 9 -5 9 -11c0 -14 -12 -65 -22 -125c-1 -13 -8 -16 -16 -15c-15 0 11 9 -163 9c-167 0 -151 -5 -202 -5c-7 0 -8 2 -8 6c0 5 5 11 11 11c26 0 40 9 48 63l81 492c3 21 -2 26 -19 26h-38c-6 0 -8 2 -8 6c0 5 6 11 12 12
c27 0 56 -2 90 -3c27 0 100 2 123 3c7 0 9 -2 8 -7c0 -5 -6 -11 -11 -11h-39c-33 0 -50 -12 -58 -62l-80 -493c-3 -16 0 -20 15 -20h36z" />
    <glyph glyph-name="M" unicode="M" horiz-adv-x="703" 
d="M615 511l-260 -450c-18 -32 -18 -46 -29 -46s-1 30 -11 75l-88 411l-98 -384c-24 -95 -12 -100 20 -100l34 1c4 0 7 -2 7 -6c0 -5 -5 -12 -14 -12c-14 0 -41 2 -72 2c-24 0 -39 -2 -51 -2c-6 0 -9 2 -9 4c0 5 3 13 13 14c21 2 31 19 45 74l115 450c-19 61 -51 56 -88 56
c-5 0 -10 1 -9 5c0 7 5 12 13 13c11 0 36 -2 67 -3c27 0 44 2 59 2c17 0 14 -21 23 -67l82 -418l232 393c41 70 29 92 44 93c6 0 14 -2 22 -3c28 0 52 2 75 3c6 0 8 -2 8 -7s-5 -11 -12 -11c-25 0 -39 -10 -47 -62l-81 -493c-3 -21 2 -26 19 -26l38 1c6 0 8 -2 8 -7
s-7 -11 -11 -11c-27 0 -56 2 -91 2c-27 0 -52 -2 -75 -2c-6 0 -8 2 -7 6c0 5 6 11 11 12c26 0 39 10 48 62z" />
    <glyph glyph-name="N" unicode="N" horiz-adv-x="641" 
d="M528 53h1c-7 -38 -2 -58 -13 -58c-12 0 -5 20 -48 91l-258 427l-72 -407c-12 -68 -4 -89 31 -89h44c5 0 10 -1 10 -5c0 -7 -6 -12 -15 -12c-19 0 -43 2 -78 2c-34 0 -59 -2 -79 -2c-4 0 -7 2 -7 4c0 10 8 14 21 15c32 3 40 19 58 118l71 402c-32 58 -45 59 -66 59h-35
c-7 0 -9 3 -8 6c0 6 7 11 12 12c11 0 68 -2 82 -3c20 0 33 2 45 2c10 0 7 -21 33 -65l262 -433l71 392c12 69 3 89 -33 89h-44c-5 0 -10 1 -10 5c0 7 6 12 15 13c19 0 43 -2 79 -3c34 0 59 2 78 3c4 0 7 -2 7 -5c0 -9 -8 -14 -20 -15c-33 -3 -41 -21 -59 -118z" />
    <glyph glyph-name="O" unicode="O" horiz-adv-x="670" 
d="M377 622l1 -1c164 0 301 -137 301 -308c0 -167 -135 -318 -315 -319c-182 0 -296 157 -296 316c0 110 97 312 309 312zM136 288h-1c0 -179 124 -276 233 -276c146 0 244 160 244 293c0 116 -58 297 -244 297c-153 0 -232 -189 -232 -314z" />
    <glyph glyph-name="P" unicode="P" horiz-adv-x="507" 
d="M164 43c-3 -21 1 -26 18 -26l38 1c6 0 8 -2 8 -7s-6 -11 -12 -11c-27 0 -56 2 -90 2c-27 0 -51 -2 -74 -2c-7 0 -8 2 -8 6c0 5 5 11 11 11c26 0 40 10 48 63l81 492c3 21 -2 26 -19 26h-38c-6 0 -8 2 -8 6c0 5 6 11 12 12c27 0 56 -2 90 -2c27 0 61 8 119 8
c173 0 201 -122 202 -166c0 -122 -113 -179 -211 -179c-36 0 -65 6 -87 12c-6 2 -9 12 6 12c21 0 43 -5 74 -5c76 0 160 53 160 156c0 76 -57 155 -169 155c-45 0 -61 -13 -65 -36z" />
    <glyph glyph-name="Q" unicode="Q" horiz-adv-x="670" 
d="M135 289h-1c0 -179 124 -276 233 -276c146 0 244 160 244 293c0 116 -58 297 -244 297c-153 0 -232 -189 -232 -314zM404 -4l-1 1c-39 -15 -89 -37 -113 -53c104 -72 198 -154 291 -154c43 0 62 26 71 26c4 0 8 -6 4 -10c-34 -30 -77 -53 -123 -53
c-112 0 -199 113 -300 157c-26 11 -40 11 -40 20c0 15 35 1 155 66c-175 9 -281 160 -281 314c0 110 97 312 310 311c164 0 301 -137 300 -309c0 -154 -114 -295 -273 -316z" />
    <glyph glyph-name="R" unicode="R" horiz-adv-x="559" 
d="M277 324h1c52 0 171 19 170 142c0 103 -60 137 -117 136c-27 0 -63 -5 -77 -9l-42 -258c15 -5 42 -11 65 -11zM165 43c-3 -21 1 -26 18 -26l38 1c6 0 8 -2 8 -7s-6 -11 -12 -11c-27 0 -56 2 -90 2c-27 0 -51 -2 -74 -2c-7 0 -8 2 -8 6c0 5 5 11 11 11c26 0 40 10 48 63
l81 492c3 21 -2 26 -19 26h-38c-6 0 -8 2 -8 6c0 5 6 11 12 12c27 0 56 -2 90 -2c39 0 74 8 121 7c101 0 172 -50 172 -143c0 -111 -97 -160 -186 -172c15 -15 26 -30 46 -62l103 -169c31 -50 41 -63 73 -63c11 0 10 -11 3 -13c-71 -19 -109 18 -162 106l-83 139
c-18 30 -35 53 -45 62c-17 0 -45 6 -55 9z" />
    <glyph glyph-name="S" unicode="S" horiz-adv-x="438" 
d="M426 586l5 14c2 5 3 10 8 9c5 0 9 -5 7 -10c-5 -25 -15 -74 -18 -100c-1 -6 -5 -10 -10 -10s-7 4 -6 12c1 11 3 25 4 32c-6 32 -75 65 -130 65c-61 0 -94 -56 -94 -106c0 -35 22 -58 80 -113l62 -59c69 -66 93 -93 93 -145c0 -89 -68 -180 -174 -181
c-47 0 -115 24 -163 48c-3 -11 -6 -18 -15 -18c-6 0 -9 6 -5 19c13 47 21 94 26 121c1 9 4 11 10 11s8 -5 8 -10c0 -11 -5 -36 -8 -49c6 -27 84 -103 150 -103c60 0 123 61 123 133c0 42 -29 75 -82 127l-66 63c-59 56 -86 87 -86 137c0 72 75 149 166 149
c38 0 80 -11 115 -36z" />
    <glyph glyph-name="T" unicode="T" horiz-adv-x="535" 
d="M176 17h-1c27 0 41 11 49 63l83 507c-122 0 -167 6 -186 -70c-6 -26 -11 -28 -17 -28s-9 3 -7 10c8 32 20 94 23 113c1 6 4 10 10 10s11 -16 51 -16h350c31 0 28 16 39 16c4 0 8 -2 8 -9c0 -14 -15 -84 -28 -120c-3 -9 -17 -5 -15 6c5 19 10 39 9 49
c0 38 -125 39 -170 39l-86 -513c-8 -51 0 -57 24 -57l58 1c6 0 8 -3 8 -7c0 -6 -6 -11 -12 -11c-33 0 -52 2 -119 2c-50 0 -87 -2 -113 -2c-6 0 -8 2 -7 5c0 7 7 12 12 12h37z" />
    <glyph glyph-name="U" unicode="U" horiz-adv-x="626" 
d="M582 511h-1c14 83 -5 87 -29 87h-39c-7 0 -8 4 -8 6c0 6 7 11 13 12c25 0 41 -2 75 -3c27 0 45 2 68 3c5 0 8 -2 7 -6c0 -7 -7 -12 -12 -12c-25 0 -39 -12 -47 -62l-55 -337c-25 -154 -134 -204 -235 -205c-158 0 -214 100 -192 234l57 345c3 19 0 25 -18 25h-39
c-6 0 -8 3 -8 6c0 5 6 11 12 12c27 0 56 -2 90 -3c27 0 53 2 75 3c5 0 8 -3 8 -6c0 -7 -7 -12 -12 -12c-26 0 -40 -10 -48 -62l-53 -324c-14 -88 23 -174 151 -173c104 0 171 52 190 168z" />
    <glyph glyph-name="V" unicode="V" horiz-adv-x="545" 
d="M577 558c-7 -27 -21 -55 -41 -90l-265 -457c-6 -10 -11 -16 -15 -16c-10 0 -1 16 -6 42l-98 505c-11 54 -19 56 -38 56h-15c-6 0 -9 2 -9 6c0 6 7 11 13 12c27 0 55 -2 89 -3c27 0 52 2 75 3c5 0 7 -3 6 -6c0 -7 -6 -12 -11 -12c-50 0 -58 -5 -42 -85l79 -408l199 343
c27 46 36 79 36 104c0 40 -34 46 -54 46h-23c-6 0 -8 2 -8 6c0 6 6 11 12 12c26 0 45 -2 80 -3c27 0 45 2 67 3c5 0 8 -2 8 -6c0 -7 -7 -12 -13 -12c-21 0 -18 -10 -26 -40z" />
    <glyph glyph-name="W" unicode="W" horiz-adv-x="820" 
d="M457 377l-32 165c-10 53 -18 56 -37 56h-15c-7 0 -9 3 -9 6c0 6 7 11 12 12c27 0 56 -2 89 -3c27 0 53 2 76 3c5 0 8 -2 7 -6c0 -7 -7 -12 -12 -12c-49 0 -58 -5 -42 -85l79 -408l199 343c27 46 37 79 37 104c0 40 -33 46 -55 46h-22c-7 0 -9 2 -9 6c0 6 7 11 12 12
c27 0 46 -2 80 -3c27 0 46 2 68 3c5 0 8 -2 8 -6c0 -7 -9 -12 -14 -12c-24 0 -19 -14 -26 -40c-8 -26 -20 -55 -41 -90l-265 -458c-5 -9 -11 -15 -14 -14c-10 0 -2 15 -7 41l-61 306l-192 -332c-6 -10 -11 -16 -15 -16c-10 0 -1 16 -6 42l-99 505c-10 53 -18 56 -37 56h-16
c-6 0 -8 3 -8 6c0 6 6 11 13 12c27 0 55 -2 89 -3c27 0 52 2 75 3c5 0 7 -2 6 -6c0 -7 -6 -12 -9 -12c-49 0 -60 -3 -44 -85l79 -408z" />
    <glyph glyph-name="X" unicode="X" horiz-adv-x="601" 
d="M570 17l12 1c6 0 8 -3 7 -7c0 -6 -7 -11 -11 -11c-28 0 -52 2 -97 2c-35 0 -58 -2 -81 -2c-5 0 -7 2 -7 5c0 7 7 12 11 12c36 0 59 9 17 92l-87 173l-140 -162c-75 -87 -43 -103 -12 -103l25 1c7 0 8 -3 8 -7c0 -6 -6 -11 -12 -11c-29 0 -58 2 -100 2
c-35 0 -58 -2 -81 -2c-5 0 -7 2 -7 5c0 8 8 12 12 13c37 0 50 7 125 93l171 196l-132 264c-12 25 -17 27 -37 27h-11c-7 0 -8 3 -8 6c0 6 6 11 11 12c28 0 52 -2 97 -3c34 0 58 2 81 3c5 0 8 -3 7 -6c0 -7 -7 -12 -11 -12c-36 0 -67 -11 -21 -105l67 -136l172 197
c29 33 14 44 -3 44h-41c-5 0 -8 3 -7 6c0 6 6 11 12 12c28 0 42 -2 84 -3c35 0 59 2 81 3c5 0 8 -3 8 -6c0 -7 -7 -12 -11 -12c-35 0 -53 -4 -124 -85l-158 -181l127 -255c27 -55 39 -60 64 -60z" />
    <glyph glyph-name="Y" unicode="Y" horiz-adv-x="533" 
d="M484 598h-30c-6 0 -8 3 -8 6c0 6 7 11 13 12c27 0 36 -2 72 -3c25 0 42 2 65 3c5 0 7 -3 7 -6c0 -7 -7 -12 -11 -12c-24 0 -31 -6 -52 -32l-182 -229c-15 -19 -17 -25 -19 -37l-42 -257c-3 -20 2 -26 18 -26l39 1c6 0 8 -3 7 -7c0 -5 -7 -11 -11 -11c-27 0 -56 2 -90 2
c-27 0 -53 -2 -75 -2c-4 0 -8 3 -8 5c0 7 7 12 13 13c24 0 38 9 46 62l34 200c5 33 4 37 -6 58l-106 215c-20 41 -27 45 -49 45h-11c-6 0 -8 3 -8 6c0 6 7 11 13 12c27 0 55 -2 89 -3c27 0 52 2 75 3c5 0 7 -3 6 -6c0 -7 -7 -12 -12 -12c-28 0 -52 -22 -27 -69l98 -187
l148 182c47 58 26 74 4 74z" />
    <glyph glyph-name="Z" unicode="Z" horiz-adv-x="558" 
d="M162 621c22 -6 44 -9 85 -10c30 0 78 3 139 4c61 0 124 -3 146 -3c47 0 68 13 68 5c0 -11 -12 -13 -40 -48l-395 -505c-17 -21 -22 -31 -20 -35c2 -3 10 -4 16 -4h127c72 0 173 12 190 46c9 18 19 48 23 64c3 12 21 13 18 2c-8 -36 -33 -135 -42 -141c-5 -3 -11 4 -40 6
c-36 2 -128 3 -303 2c-72 0 -85 -9 -89 -5c-3 3 0 9 5 17l403 517c23 29 37 53 40 62c-285 0 -318 -9 -329 -44l-14 -43c-2 -7 -7 -11 -13 -11c-5 0 -6 6 -4 14z" />
    <glyph glyph-name="bracketleft" unicode="[" horiz-adv-x="242" 
d="M290 615v-22h-120v-726h120v-22h-169v770h169z" />
    <glyph glyph-name="backslash" unicode="\" horiz-adv-x="557" 
d="M97 602v-1c-5 7 -2 14 4 15c5 0 9 -3 13 -10l438 -599c6 -8 1 -14 -4 -15c-6 0 -9 3 -13 10z" />
    <glyph glyph-name="bracketright" unicode="]" horiz-adv-x="242" 
d="M233 -155h-170v22h120v726h-120v22h170v-770z" />
    <glyph glyph-name="asciicircum" unicode="^" horiz-adv-x="259" 
d="M163 557h55l93 -140h-33l-88 92l-87 -92h-33z" />
    <glyph glyph-name="underscore" unicode="_" horiz-adv-x="533" 
d="M515 -148h-536v22h536v-22z" />
    <glyph glyph-name="grave" unicode="`" horiz-adv-x="163" 
d="M246 417h-33l-101 69c-30 21 -40 31 -40 47c0 19 15 28 29 29c21 0 35 -14 52 -35z" />
    <glyph glyph-name="a" unicode="a" horiz-adv-x="411" 
d="M104 140h1c0 -71 30 -112 48 -111c24 0 115 71 138 137l27 170c-19 8 -45 17 -71 17c-109 0 -143 -129 -143 -213zM333 110l-1 -1c-10 -62 1 -79 12 -78c16 0 44 27 55 27c7 0 4 -13 -1 -16c-39 -30 -74 -54 -90 -54c-21 0 -35 64 -30 96l5 26
c-58 -67 -109 -122 -152 -122c-47 0 -77 75 -77 137c0 179 153 261 225 262c27 0 44 -12 53 -12c11 0 29 19 40 19c6 0 5 -6 4 -12z" />
    <glyph glyph-name="b" unicode="b" horiz-adv-x="425" 
d="M180 249l-28 -175c2 -25 31 -59 81 -59c55 0 140 55 140 213c0 84 -45 112 -73 111c-50 0 -89 -50 -120 -90zM179 548l1 1c6 37 -2 54 -8 54c-16 0 -30 0 -47 -1c-5 0 -8 1 -8 5s4 10 8 10c49 0 98 10 107 11c5 0 7 -15 2 -46l-49 -304c39 49 99 108 142 109
c23 0 98 -38 98 -145c0 -177 -127 -254 -209 -254c-53 0 -123 28 -114 80z" />
    <glyph glyph-name="c" unicode="c" horiz-adv-x="332" 
d="M332 329c3 -7 -3 -8 -19 -18c-12 -7 -19 -16 -23 -7c-16 25 -40 57 -65 57c-48 0 -118 -89 -118 -204c0 -65 31 -131 85 -131c24 0 56 13 103 33c8 4 13 -6 5 -11c-57 -36 -109 -60 -156 -60c-40 0 -91 65 -91 159c0 163 147 239 204 240c37 0 59 -23 75 -58z" />
    <glyph glyph-name="d" unicode="d" horiz-adv-x="406" 
d="M104 147h1c0 -71 31 -115 53 -115c27 0 116 64 126 125l29 179c-20 19 -44 21 -61 21c-103 0 -148 -119 -148 -210zM327 110v-1c-10 -62 1 -79 12 -78c16 0 45 27 56 27c7 0 3 -13 -1 -16c-37 -27 -75 -54 -91 -54c-20 0 -33 57 -29 96l1 17c-42 -56 -104 -113 -140 -113
c-39 0 -81 62 -81 132c0 169 141 266 232 267c15 0 31 -3 36 -4l27 166c6 37 -2 54 -8 54c-16 0 -30 0 -46 -1c-5 0 -8 1 -9 5c0 4 4 10 8 10c49 0 98 10 108 11c5 0 7 -15 2 -46z" />
    <glyph glyph-name="e" unicode="e" horiz-adv-x="313" 
d="M106 177h1c-9 -86 18 -152 92 -152c23 0 59 11 99 32c11 6 14 -9 6 -13c-70 -36 -130 -56 -153 -56c-29 0 -98 46 -97 148c0 140 104 250 198 250c43 0 61 -38 61 -67c0 -71 -89 -100 -163 -127zM267 308c0 30 -17 56 -43 55c-43 0 -109 -49 -116 -168
c135 39 159 70 159 113z" />
    <glyph glyph-name="f" unicode="f" horiz-adv-x="234" 
d="M169 485h-1c7 44 39 163 145 163c27 0 54 -23 54 -36c0 -4 -5 -7 -10 -12s-10 -10 -13 -10c-7 0 -27 42 -53 42c-43 0 -57 -50 -68 -122l-22 -135h38c4 0 6 -1 6 -6c0 -6 -5 -12 -11 -12h-36l-71 -428c-22 -132 -77 -190 -132 -190c-14 0 -33 6 -33 11c0 11 13 31 22 31
c7 0 21 -14 37 -13c24 0 37 40 48 104l79 485h-37c-5 0 -7 2 -6 7c0 5 6 11 12 11h34z" />
    <glyph glyph-name="g" unicode="g" horiz-adv-x="435" 
d="M405 386c4 -3 -8 -26 -14 -61l-49 -297c-16 -100 31 -132 30 -170c0 -36 -92 -118 -190 -118c-90 0 -134 58 -135 108c0 52 36 82 100 139c7 6 14 -1 10 -6c-41 -36 -73 -66 -73 -110s41 -110 128 -110c68 0 111 49 111 85c0 24 -42 89 -22 233l4 27
c-58 -60 -111 -106 -139 -106c-22 0 -82 46 -81 146c0 146 114 240 210 241c31 0 47 -12 59 -13c30 0 47 16 51 12zM131 164h-1c0 -82 49 -120 64 -120c25 0 99 62 118 101l29 184c5 30 -37 35 -63 35c-94 0 -147 -87 -147 -200z" />
    <glyph glyph-name="h" unicode="h" horiz-adv-x="454" 
d="M375 110l-1 -1c-10 -62 1 -79 13 -78c16 0 44 27 55 27c7 0 3 -13 -1 -16c-42 -33 -77 -54 -91 -54c-20 0 -35 59 -29 96l24 150c12 75 15 112 -9 112c-28 0 -94 -47 -162 -137l-31 -188c-3 -19 -6 -21 -14 -21h-30c-6 0 -8 3 -6 17l87 532c6 37 -2 54 -8 54
c-16 0 -30 0 -47 -1c-5 0 -8 1 -8 5s4 10 8 10c49 0 98 10 107 11c5 0 7 -15 2 -46l-56 -348c43 59 135 152 180 153c35 0 54 -50 41 -129z" />
    <glyph glyph-name="i" unicode="i" horiz-adv-x="237" 
d="M135 277h-1c8 51 4 60 -2 60c-13 0 -39 -6 -52 -6c-5 0 -7 1 -7 4c0 4 3 9 7 10c61 8 102 35 112 35c5 0 7 -13 2 -45l-37 -226c-10 -62 1 -79 12 -78c16 0 45 27 56 27c7 0 3 -13 -1 -16c-29 -22 -72 -54 -90 -53c-20 0 -35 59 -30 95zM176 499l-1 1c0 18 14 34 32 34
c16 0 26 -13 26 -36c0 -18 -14 -35 -31 -35c-16 0 -26 14 -26 36z" />
    <glyph glyph-name="j" unicode="j" horiz-adv-x="237" 
d="M177 499l-1 1c0 18 14 34 32 34c16 0 26 -13 26 -36c0 -18 -14 -35 -31 -35c-16 0 -26 14 -26 36zM121 -110h-1c-15 -95 -82 -150 -141 -150c-22 0 -46 12 -46 15c0 4 3 9 9 17c8 12 11 18 17 19c6 0 23 -25 49 -25s47 21 59 96l67 416c8 51 3 60 -3 60
c-13 0 -39 -6 -52 -6c-5 0 -7 1 -7 4c0 4 3 9 7 10c61 8 102 35 112 35c5 0 7 -13 2 -45z" />
    <glyph glyph-name="k" unicode="k" horiz-adv-x="393" 
d="M175 219c15 -5 34 -9 50 -9c58 0 123 42 123 87c0 26 -18 46 -45 46c-47 0 -118 -63 -128 -124zM179 548l1 1c6 37 -2 54 -8 54c-16 0 -30 0 -47 -1c-5 0 -8 1 -8 5s4 10 8 10c49 0 98 10 107 11c5 0 7 -15 2 -46l-48 -298c36 39 98 102 145 102c38 0 59 -28 59 -58
c0 -48 -43 -115 -144 -135l34 -56c38 -64 69 -106 116 -129c9 -4 7 -13 0 -13c-76 7 -101 38 -172 135c-34 47 -45 62 -52 67l-30 -184c-2 -11 -6 -13 -16 -13h-24c-9 0 -11 4 -10 13z" />
    <glyph glyph-name="l" unicode="l" horiz-adv-x="237" 
d="M232 627v1c5 0 7 -15 2 -46l-77 -473c-10 -62 1 -79 12 -78c16 0 45 27 56 27c7 0 3 -13 -1 -16c-42 -32 -75 -54 -91 -54c-19 0 -35 57 -29 96l76 465c6 37 -2 54 -8 54c-16 0 -30 0 -47 -1c-5 0 -8 1 -8 5s4 10 8 10c49 0 98 10 107 10z" />
    <glyph glyph-name="m" unicode="m" horiz-adv-x="622" 
d="M542 110v-1c-10 -62 0 -79 12 -78c16 0 44 27 55 27c7 0 3 -13 -1 -16c-42 -32 -75 -54 -91 -54c-20 0 -35 60 -29 96l28 170c6 40 7 81 -12 82c-41 0 -100 -70 -140 -122l-31 -193c-3 -19 -6 -21 -14 -21h-30c-6 0 -8 3 -6 17l37 228c9 56 9 90 -8 90
c-21 0 -60 -28 -139 -131l-30 -183c-3 -19 -5 -21 -14 -21h-30c-6 0 -8 3 -6 17l42 260c8 51 3 60 -3 60c-13 0 -39 -6 -52 -6c-5 0 -7 1 -7 4c0 4 3 9 7 10c61 8 102 35 112 35c5 0 8 -11 2 -45l-16 -100c61 88 125 151 176 152c33 0 29 -71 20 -118l-4 -19
c58 71 123 136 166 137c27 0 47 -27 24 -164z" />
    <glyph glyph-name="n" unicode="n" horiz-adv-x="454" 
d="M135 277c8 51 3 60 -3 60c-13 0 -39 -6 -52 -6c-5 0 -7 1 -7 4c0 4 3 9 7 10c61 8 102 35 112 35c5 0 8 -11 2 -45l-16 -101c43 59 135 152 180 153c35 0 54 -50 41 -129l-25 -149c-10 -62 1 -79 13 -78c16 0 44 27 55 27c7 0 3 -13 -1 -16c-42 -32 -75 -54 -91 -54
c-20 0 -35 59 -29 96l24 150c12 75 15 112 -9 112c-28 0 -94 -47 -162 -137l-31 -188c-3 -19 -6 -21 -14 -21h-30c-6 0 -8 3 -6 17z" />
    <glyph glyph-name="o" unicode="o" horiz-adv-x="385" 
d="M256 386v1c66 0 129 -34 129 -158c0 -92 -69 -241 -203 -241c-73 0 -129 53 -129 162c0 122 94 236 203 236zM106 165v-1c0 -82 21 -153 98 -153c80 0 125 110 124 211c0 103 -50 143 -94 143c-50 0 -128 -53 -128 -200z" />
    <glyph glyph-name="p" unicode="p" horiz-adv-x="429" 
d="M178 234l-28 -172c15 -28 53 -47 93 -48c73 0 132 70 132 200c0 68 -32 122 -77 122c-44 0 -100 -65 -120 -102zM104 -221v-1c-3 -19 -1 -23 15 -23l53 1c6 0 7 -2 6 -6c0 -4 -6 -11 -11 -11c-38 0 -67 2 -97 2c-20 0 -25 -2 -53 -2c-5 0 -8 2 -7 5c0 3 6 11 11 11
c16 0 30 5 39 63l75 458c8 51 3 61 -3 61c-13 0 -39 -6 -52 -6c-5 0 -7 1 -7 4c0 4 3 9 7 10c61 8 102 35 112 35c5 0 8 -10 2 -45l-8 -52c43 48 96 103 137 103c26 0 106 -51 105 -144c0 -135 -95 -254 -214 -253c-27 0 -58 5 -74 12z" />
    <glyph glyph-name="q" unicode="q" horiz-adv-x="410" 
d="M104 145c0 -62 22 -111 49 -112c35 0 113 71 133 111l32 194c-14 15 -38 20 -60 20c-114 0 -154 -144 -154 -213zM277 -221c-3 -19 -1 -24 15 -24l52 1c7 0 8 -2 7 -6c0 -4 -7 -11 -11 -11c-38 0 -67 2 -97 2c-20 0 -26 -2 -54 -2c-5 0 -7 2 -6 5c0 3 6 11 12 11
c16 0 30 5 39 61l45 285c-61 -62 -127 -113 -157 -113c-22 0 -69 51 -69 139c0 136 124 259 231 259c36 0 48 -11 59 -11c10 0 34 23 32 7z" />
    <glyph glyph-name="r" unicode="r" horiz-adv-x="281" 
d="M144 21h-1c-3 -19 -6 -21 -14 -21h-30c-6 0 -8 3 -6 17l42 260c8 51 3 60 -3 60c-13 0 -39 -6 -52 -6c-5 0 -7 1 -7 4c0 4 3 9 7 10c61 8 102 35 112 35c5 0 8 -10 2 -45l-8 -55c30 54 69 103 79 103c22 0 49 -30 49 -43c0 -6 -4 -8 -15 -20c-11 -11 -15 -16 -20 -16
c-7 0 -15 21 -30 22c-31 0 -70 -80 -84 -169z" />
    <glyph glyph-name="s" unicode="s" horiz-adv-x="286" 
d="M286 357c0 -5 -3 -8 -8 -17c-5 -13 -6 -21 -11 -22c-5 0 -31 27 -77 27c-30 0 -61 -22 -61 -52c0 -27 23 -43 74 -74c42 -25 83 -49 83 -97c0 -63 -49 -134 -123 -133c-52 0 -110 38 -110 46s7 20 14 31c19 31 20 35 27 34c5 0 4 -16 4 -25c0 -16 37 -54 81 -54
c53 0 76 29 76 64c0 32 -25 51 -79 86c-47 30 -74 43 -74 91c0 71 63 124 118 125c39 0 66 -24 66 -30z" />
    <glyph glyph-name="t" unicode="t" horiz-adv-x="237" 
d="M198 357l-41 -248c-10 -62 1 -79 12 -78c16 0 45 27 56 27c7 0 3 -13 -1 -16c-41 -31 -75 -54 -91 -54c-20 0 -35 59 -29 96l44 273h-37c-5 0 -7 2 -6 7c0 5 6 11 12 11h34l13 70c3 18 5 21 13 21h30c7 0 9 -3 6 -17l-12 -74h54c5 0 7 -1 7 -6c0 -6 -6 -12 -13 -12h-51z
" />
    <glyph glyph-name="u" unicode="u" horiz-adv-x="454" 
d="M163 141v-1c-12 -75 -15 -112 10 -111c28 0 88 49 161 139l31 186c3 20 6 21 14 21h29c6 0 9 -2 7 -18l-41 -248c-10 -63 1 -79 13 -78c16 0 44 27 55 27c7 0 3 -13 -1 -16c-40 -31 -75 -54 -91 -54c-20 0 -35 59 -29 96l10 58c-45 -60 -136 -154 -182 -153
c-35 0 -53 49 -40 127l26 159c8 51 3 62 -3 62c-13 0 -39 -6 -52 -6c-5 0 -7 1 -7 4c0 4 3 9 7 10c61 8 102 35 111 35c5 0 8 -12 3 -45z" />
    <glyph glyph-name="v" unicode="v" horiz-adv-x="370" 
d="M142 386c7 0 25 -39 27 -112l5 -157c1 -20 10 -56 14 -55c5 0 8 4 16 13l67 81c49 59 71 94 72 131c0 50 -27 64 -27 77c0 5 5 6 17 13c10 6 11 9 18 10c5 0 26 -35 27 -72c0 -44 -38 -100 -77 -147l-91 -113c-37 -46 -41 -59 -49 -59s-37 46 -39 134l-4 121
c-2 71 -11 103 -31 103c-11 0 -30 -5 -37 -5s-1 14 4 14c55 10 79 23 88 23z" />
    <glyph glyph-name="w" unicode="w" horiz-adv-x="582" 
d="M337 207c-7 -13 -17 -25 -29 -39l-91 -113c-37 -46 -41 -59 -49 -59c-7 0 -37 46 -40 134l-4 121c-2 71 -10 103 -30 103c-11 0 -30 -5 -38 -5c-7 0 -1 14 4 14c55 10 79 23 89 23c7 0 25 -39 27 -112l4 -157c1 -20 10 -56 15 -56s9 4 17 14l65 80c28 34 48 62 59 84
l-3 127c0 8 4 9 26 9c20 0 25 -1 26 -9l7 -249c1 -20 10 -56 14 -56c5 0 9 4 17 14l65 81c49 59 72 94 73 131c0 50 -27 64 -27 77c0 5 5 6 18 12c10 6 10 10 17 11c5 0 26 -35 27 -72c0 -44 -38 -100 -77 -147l-91 -113c-37 -46 -41 -59 -48 -59s-37 46 -40 134z" />
    <glyph glyph-name="x" unicode="x" horiz-adv-x="453" 
d="M283 216l44 57c54 72 80 109 128 109c17 0 25 -4 24 -7c0 -5 -2 -9 -7 -17c-8 -13 -10 -18 -16 -19c-5 0 -15 3 -23 4c-40 0 -53 -22 -108 -94l-36 -47l34 -70c36 -77 50 -103 64 -103c16 0 35 36 43 36c4 0 8 -5 5 -9c-22 -32 -54 -68 -75 -68c-27 0 -41 34 -70 96
l-34 75l-85 -106c-25 -32 -56 -60 -104 -60c-14 0 -30 7 -30 11c0 5 4 10 10 18c10 13 12 17 18 18c5 0 15 -14 34 -15c15 0 44 13 94 78l56 71l-44 93c-18 38 -44 85 -63 84c-18 0 -46 -30 -51 -29c-5 0 -9 6 -1 12c23 19 67 52 84 53c27 0 59 -64 81 -110z" />
    <glyph glyph-name="y" unicode="y" horiz-adv-x="403" 
d="M254 29l60 103c42 73 55 107 55 136c0 58 -34 85 -34 98c0 7 23 20 35 20c14 0 33 -40 33 -85c0 -31 -11 -67 -34 -106l-206 -350c-29 -50 -76 -106 -125 -106c-23 0 -33 5 -33 12c0 5 8 32 15 32c20 0 61 -12 107 36c14 15 36 53 69 114c17 30 18 38 13 62l-51 244
c-17 83 -51 114 -72 113c-18 0 -33 -16 -44 -16c-5 0 -8 7 -1 10c40 24 78 40 94 41c28 0 58 -70 74 -143z" />
    <glyph glyph-name="z" unicode="z" horiz-adv-x="381" 
d="M375 383v-1c4 0 9 -5 2 -12l-237 -287c-7 -8 -15 -21 -16 -28c34 0 102 -19 143 -19s59 22 59 35c0 22 -32 33 -32 39c0 5 12 23 18 23c5 0 33 -16 34 -45c0 -49 -37 -93 -115 -94c-49 0 -90 14 -129 14c-38 0 -43 -18 -54 -18c-5 0 -6 7 -1 13l260 314
c-48 -4 -122 25 -152 25c-21 0 -37 -6 -52 -34c-4 -5 -13 -4 -12 4c13 63 17 74 54 75c53 0 129 -23 163 -23c36 0 55 19 67 19z" />
    <glyph glyph-name="braceleft" unicode="{" horiz-adv-x="397" 
d="M44 164v25c122 20 167 43 167 177l-1 96c0 105 70 153 213 153v-20c-93 -8 -168 -35 -168 -137l-1 -94c0 -89 -6 -160 -168 -189c163 -27 169 -98 169 -186v-94c0 -102 75 -129 168 -139l1 -20c-143 0 -213 49 -213 154v95c0 136 -45 159 -167 179z" />
    <glyph glyph-name="bar" unicode="|" horiz-adv-x="168" 
d="M143 -148h-22v763h22v-763z" />
    <glyph glyph-name="braceright" unicode="}" horiz-adv-x="397" 
d="M423 164h1c-123 -20 -168 -43 -168 -179v-95c0 -105 -70 -154 -212 -154l1 21c92 9 167 36 167 138v94c0 88 6 159 169 187c-163 28 -169 99 -169 188l-1 94c0 102 -75 129 -167 137v21c142 0 212 -48 212 -154l-1 -95c0 -135 45 -158 168 -178v-25z" />
    <glyph glyph-name="asciitilde" unicode="~" horiz-adv-x="256" 
d="M64 413h1c11 56 38 91 80 90c43 0 63 -39 109 -39c17 0 32 12 41 43l23 1c-12 -55 -39 -91 -81 -91c-43 0 -63 39 -109 39c-17 0 -33 -12 -42 -43h-22z" />
    <glyph glyph-name="Adieresis" unicode="&#xc4;" horiz-adv-x="582" 
d="M199 254h217l-51 274zM29 0h1c-5 0 -7 3 -8 6c0 6 5 11 16 12c29 0 19 19 50 72l302 525c10 17 13 21 18 21c10 0 1 -12 5 -33l99 -546c6 -30 21 -40 44 -40c12 0 15 0 15 -6c0 -3 -5 -11 -14 -11c-24 0 -47 2 -74 2c-24 0 -50 -2 -78 -2c-5 0 -8 2 -8 6s5 11 14 12
c26 0 46 18 30 103l-21 112h-232l-34 -58c-22 -38 -45 -82 -45 -120c0 -26 15 -38 34 -38l37 1c6 0 8 -3 7 -7c0 -5 -7 -11 -12 -11c-24 0 -45 2 -78 2c-22 0 -45 -2 -68 -2zM336 708l-1 1c0 18 14 34 31 34c16 0 26 -13 27 -36c0 -18 -14 -35 -31 -35c-16 0 -26 14 -26 36z
M444 709v1c0 18 14 34 31 34c16 0 26 -13 26 -36c0 -18 -14 -35 -31 -35c-16 0 -26 14 -26 36z" />
    <glyph glyph-name="Aring" unicode="&#xc5;" horiz-adv-x="582" 
d="M199 254h217l-51 274zM29 0h1c-5 0 -7 3 -8 6c0 6 5 11 16 12c29 0 19 19 50 72l302 525c10 17 13 21 18 21c10 0 1 -12 5 -33l99 -546c6 -30 21 -40 44 -40c12 0 15 0 15 -6c0 -3 -5 -11 -14 -11c-24 0 -47 2 -74 2c-24 0 -50 -2 -78 -2c-5 0 -8 2 -8 6s5 11 14 12
c26 0 46 18 30 103l-21 112h-232l-34 -58c-22 -38 -45 -82 -45 -120c0 -26 15 -38 34 -38l37 1c6 0 8 -3 7 -7c0 -5 -7 -11 -12 -11c-24 0 -45 2 -78 2c-22 0 -45 -2 -68 -2zM372 719c0 24 19 43 42 42c24 0 44 -19 44 -42c0 -24 -20 -43 -43 -43c-24 0 -43 19 -43 43z
M388 719c0 -15 11 -26 26 -26s27 11 27 26s-12 26 -27 26s-26 -11 -26 -26z" />
    <glyph glyph-name="Ccedilla" unicode="&#xc7;" horiz-adv-x="603" 
d="M349 -5c-167 8 -281 122 -281 277c0 195 148 350 332 350c52 0 123 -12 187 -40c2 8 6 21 6 28c3 11 21 8 18 -6c-10 -42 -19 -94 -26 -140c-1 -10 -18 -9 -18 3c1 9 5 35 8 49c-11 36 -97 89 -182 89c-106 0 -258 -115 -259 -305c0 -220 158 -291 229 -291
c51 0 118 27 140 51c16 19 21 37 33 89c4 15 21 10 18 -2c-5 -19 -16 -72 -20 -89c-4 -21 -6 -25 -15 -30c-38 -19 -89 -33 -147 -33l-40 -57c60 22 129 -5 129 -62c0 -50 -43 -84 -107 -84c-35 0 -73 10 -101 21l12 25c20 -9 56 -16 84 -16c43 0 67 24 67 51
c0 32 -30 45 -56 46c-16 0 -33 -4 -53 -12l-15 12z" />
    <glyph glyph-name="Eacute" unicode="&#xc9;" horiz-adv-x="503" 
d="M52 0c-7 0 -8 2 -8 6c0 5 5 11 11 11c26 0 40 10 48 63l81 492c3 21 -2 26 -19 26h-38c-6 0 -8 2 -8 6c0 5 6 11 11 12c27 0 86 -3 141 -4c111 0 232 3 232 4c0 -23 -8 -82 -16 -110c-3 -9 -17 -8 -18 2c0 5 5 23 6 36c0 24 9 49 -182 49h-39l-42 -258c16 -2 43 -2 82 -2
c93 0 102 2 109 7s10 15 23 59c5 17 21 7 19 -4c-14 -49 -25 -103 -28 -155c-1 -11 -20 -17 -20 -1c0 12 1 27 1 40c0 25 -27 38 -120 38c-23 0 -56 -1 -70 -2l-48 -292h55c218 0 217 27 226 72c10 49 12 52 18 52c5 0 10 -5 10 -11c0 -14 -13 -65 -22 -125
c-2 -13 -8 -16 -16 -15c-16 0 -3 9 -177 9c-167 0 -151 -5 -202 -5zM287 649l94 111c17 20 31 33 52 33c13 0 29 -8 29 -28c0 -15 -10 -25 -41 -46l-100 -70h-34z" />
    <glyph glyph-name="Ntilde" unicode="&#xd1;" horiz-adv-x="641" 
d="M528 53h1c-7 -38 -2 -58 -13 -58c-12 0 -5 20 -48 91l-258 427l-72 -407c-12 -68 -4 -89 31 -89h44c5 0 10 -1 10 -5c0 -7 -6 -12 -15 -12c-19 0 -43 2 -78 2c-34 0 -59 -2 -79 -2c-4 0 -7 2 -7 4c0 10 8 14 21 15c32 3 40 19 58 118l71 402c-32 58 -45 59 -66 59h-35
c-7 0 -9 3 -8 6c0 6 7 11 12 12c11 0 68 -2 82 -3c20 0 33 2 45 2c10 0 7 -21 33 -65l262 -433l71 392c12 69 3 89 -33 89h-44c-5 0 -10 1 -10 5c0 7 6 12 15 13c19 0 43 -2 79 -3c34 0 59 2 78 3c4 0 7 -2 7 -5c0 -9 -8 -14 -20 -15c-33 -3 -41 -21 -59 -118zM279 646v-1
c12 56 39 91 81 91c44 0 64 -39 109 -39c17 0 33 12 42 43h23c-12 -56 -39 -91 -81 -90c-44 0 -64 39 -109 39c-18 0 -33 -12 -42 -43h-23z" />
    <glyph glyph-name="Odieresis" unicode="&#xd6;" horiz-adv-x="670" 
d="M377 622l1 -1c164 0 301 -137 301 -308c0 -167 -135 -318 -315 -319c-182 0 -296 157 -296 316c0 110 97 312 309 312zM136 288h-1c0 -179 124 -276 233 -276c146 0 244 160 244 293c0 116 -58 297 -244 297c-153 0 -232 -189 -232 -314zM294 705v1c0 18 14 34 31 34
c16 0 26 -13 26 -36c0 -18 -14 -35 -31 -35c-16 0 -26 14 -26 36zM404 706v1c0 18 14 34 31 34c16 0 26 -13 26 -36c0 -18 -14 -35 -31 -35c-16 0 -26 14 -26 36z" />
    <glyph glyph-name="Udieresis" unicode="&#xdc;" horiz-adv-x="626" 
d="M582 511h-1c14 83 -5 87 -29 87h-39c-7 0 -8 4 -8 6c0 6 7 11 13 12c25 0 41 -2 75 -3c27 0 45 2 68 3c5 0 8 -2 7 -6c0 -7 -7 -12 -12 -12c-25 0 -39 -12 -47 -62l-55 -337c-25 -154 -134 -204 -235 -205c-158 0 -214 100 -192 234l57 345c3 19 0 25 -18 25h-39
c-6 0 -8 3 -8 6c0 5 6 11 12 12c27 0 56 -2 90 -3c27 0 53 2 75 3c5 0 8 -3 8 -6c0 -7 -7 -12 -12 -12c-26 0 -40 -10 -48 -62l-53 -324c-14 -88 23 -174 151 -173c104 0 171 52 190 168zM330 706l-1 1c0 18 14 34 31 34c16 0 26 -13 27 -36c0 -18 -14 -35 -31 -35
c-16 0 -26 14 -26 36zM439 707l-1 1c0 18 14 34 31 34c16 0 26 -13 27 -36c0 -18 -14 -35 -31 -35c-16 0 -26 14 -26 36z" />
    <glyph glyph-name="aacute" unicode="&#xe1;" horiz-adv-x="411" 
d="M104 140h1c0 -71 30 -112 48 -111c24 0 115 71 138 137l27 170c-19 8 -45 17 -71 17c-109 0 -143 -129 -143 -213zM333 110l-1 -1c-10 -62 1 -79 12 -78c16 0 44 27 55 27c7 0 4 -13 -1 -16c-39 -30 -74 -54 -90 -54c-21 0 -35 64 -30 96l5 26
c-58 -67 -109 -122 -152 -122c-47 0 -77 75 -77 137c0 179 153 261 225 262c27 0 44 -12 53 -12c11 0 29 19 40 19c6 0 5 -6 4 -12zM254 416l94 110c17 20 31 34 52 34c13 0 29 -9 29 -28c0 -16 -10 -26 -41 -47l-100 -69h-34z" />
    <glyph glyph-name="agrave" unicode="&#xe0;" horiz-adv-x="411" 
d="M104 140h1c0 -71 30 -112 48 -111c24 0 115 71 138 137l27 170c-19 8 -45 17 -71 17c-109 0 -143 -129 -143 -213zM333 110l-1 -1c-10 -62 1 -79 12 -78c16 0 44 27 55 27c7 0 4 -13 -1 -16c-39 -30 -74 -54 -90 -54c-21 0 -35 64 -30 96l5 26
c-58 -67 -109 -122 -152 -122c-47 0 -77 75 -77 137c0 179 153 261 225 262c27 0 44 -12 53 -12c11 0 29 19 40 19c6 0 5 -6 4 -12zM336 416h-33l-101 69c-30 21 -40 31 -40 47c0 19 15 28 29 29c21 0 35 -14 52 -35z" />
    <glyph glyph-name="acircumflex" unicode="&#xe2;" horiz-adv-x="411" 
d="M104 140h1c0 -71 30 -112 48 -111c24 0 115 71 138 137l27 170c-19 8 -45 17 -71 17c-109 0 -143 -129 -143 -213zM333 110l-1 -1c-10 -62 1 -79 12 -78c16 0 44 27 55 27c7 0 4 -13 -1 -16c-39 -30 -74 -54 -90 -54c-21 0 -35 64 -30 96l5 26
c-58 -67 -109 -122 -152 -122c-47 0 -77 75 -77 137c0 179 153 261 225 262c27 0 44 -12 53 -12c11 0 29 19 40 19c6 0 5 -6 4 -12zM263 556h55l93 -140h-33l-88 92l-88 -92h-33z" />
    <glyph glyph-name="adieresis" unicode="&#xe4;" horiz-adv-x="411" 
d="M104 140h1c0 -71 30 -112 48 -111c24 0 115 71 138 137l27 170c-19 8 -45 17 -71 17c-109 0 -143 -129 -143 -213zM333 110l-1 -1c-10 -62 1 -79 12 -78c16 0 44 27 55 27c7 0 4 -13 -1 -16c-39 -30 -74 -54 -90 -54c-21 0 -35 64 -30 96l5 26
c-58 -67 -109 -122 -152 -122c-47 0 -77 75 -77 137c0 179 153 261 225 262c27 0 44 -12 53 -12c11 0 29 19 40 19c6 0 5 -6 4 -12zM195 498v1c0 18 14 34 31 34c16 0 26 -13 26 -36c0 -18 -14 -35 -31 -35c-16 0 -26 14 -26 36zM305 499v1c0 18 14 34 31 34
c16 0 26 -13 26 -36c0 -18 -14 -35 -31 -35c-16 0 -26 14 -26 36z" />
    <glyph glyph-name="atilde" unicode="&#xe3;" horiz-adv-x="411" 
d="M104 140h1c0 -71 30 -112 48 -111c24 0 115 71 138 137l27 170c-19 8 -45 17 -71 17c-109 0 -143 -129 -143 -213zM333 110l-1 -1c-10 -62 1 -79 12 -78c16 0 44 27 55 27c7 0 4 -13 -1 -16c-39 -30 -74 -54 -90 -54c-21 0 -35 64 -30 96l5 26
c-58 -67 -109 -122 -152 -122c-47 0 -77 75 -77 137c0 179 153 261 225 262c27 0 44 -12 53 -12c11 0 29 19 40 19c6 0 5 -6 4 -12zM164 412c12 56 39 91 81 90c44 0 64 -39 108 -39c18 0 33 12 43 43l23 1c-12 -55 -39 -91 -81 -91c-44 0 -64 39 -109 39
c-17 0 -33 -12 -42 -43h-23z" />
    <glyph glyph-name="aring" unicode="&#xe5;" horiz-adv-x="411" 
d="M104 140h1c0 -71 30 -112 48 -111c24 0 115 71 138 137l27 170c-19 8 -45 17 -71 17c-109 0 -143 -129 -143 -213zM333 110l-1 -1c-10 -62 1 -79 12 -78c16 0 44 27 55 27c7 0 4 -13 -1 -16c-39 -30 -74 -54 -90 -54c-21 0 -35 64 -30 96l5 26
c-58 -67 -109 -122 -152 -122c-47 0 -77 75 -77 137c0 179 153 261 225 262c27 0 44 -12 53 -12c11 0 29 19 40 19c6 0 5 -6 4 -12zM234 489c0 24 19 43 42 43c24 0 44 -19 44 -43s-20 -43 -43 -43c-24 0 -43 19 -43 43zM251 489c0 -15 11 -26 26 -26s27 11 27 26
s-12 26 -27 26s-26 -11 -26 -26z" />
    <glyph glyph-name="ccedilla" unicode="&#xe7;" horiz-adv-x="332" 
d="M143 -12c-41 3 -90 67 -90 159c0 163 147 239 204 240c37 0 59 -23 75 -58c3 -7 -3 -8 -19 -18c-12 -7 -19 -16 -23 -7c-16 25 -40 57 -65 57c-48 0 -118 -89 -118 -204c0 -65 31 -131 85 -131c24 0 56 13 103 33c8 4 13 -6 6 -10c-47 -31 -93 -54 -133 -59l-38 -52
c60 22 129 -5 129 -62c0 -50 -43 -84 -105 -84c-36 0 -74 10 -103 21l13 25c20 -9 55 -16 83 -16c43 0 67 24 67 51c0 32 -30 45 -55 46c-16 0 -34 -4 -54 -12l-14 12z" />
    <glyph glyph-name="eacute" unicode="&#xe9;" horiz-adv-x="313" 
d="M106 177h1c-9 -86 18 -152 92 -152c23 0 59 11 99 32c11 6 14 -9 6 -13c-70 -36 -130 -56 -153 -56c-29 0 -98 46 -97 148c0 140 104 250 198 250c43 0 61 -38 61 -67c0 -71 -89 -100 -163 -127zM267 308c0 30 -17 56 -43 55c-43 0 -109 -49 -116 -168
c135 39 159 70 159 113zM222 417l93 110c17 20 31 34 52 34c14 0 29 -9 29 -28c0 -16 -10 -26 -41 -47l-100 -69h-33z" />
    <glyph glyph-name="egrave" unicode="&#xe8;" horiz-adv-x="313" 
d="M106 177h1c-9 -86 18 -152 92 -152c23 0 59 11 99 32c11 6 14 -9 6 -13c-70 -36 -130 -56 -153 -56c-29 0 -98 46 -97 148c0 140 104 250 198 250c43 0 61 -38 61 -67c0 -71 -89 -100 -163 -127zM267 308c0 30 -17 56 -43 55c-43 0 -109 -49 -116 -168
c135 39 159 70 159 113zM278 417h-33l-101 69c-30 21 -40 31 -40 47c0 19 15 28 29 29c21 0 35 -14 52 -35z" />
    <glyph glyph-name="ecircumflex" unicode="&#xea;" horiz-adv-x="313" 
d="M106 177h1c-9 -86 18 -152 92 -152c23 0 59 11 99 32c11 6 14 -9 6 -13c-70 -36 -130 -56 -153 -56c-29 0 -98 46 -97 148c0 140 104 250 198 250c43 0 61 -38 61 -67c0 -71 -89 -100 -163 -127zM267 308c0 30 -17 56 -43 55c-43 0 -109 -49 -116 -168
c135 39 159 70 159 113zM197 557h56l92 -140h-32l-88 92l-88 -92h-33z" />
    <glyph glyph-name="edieresis" unicode="&#xeb;" horiz-adv-x="313" 
d="M106 177h1c-9 -86 18 -152 92 -152c23 0 59 11 99 32c11 6 14 -9 6 -13c-70 -36 -130 -56 -153 -56c-29 0 -98 46 -97 148c0 140 104 250 198 250c43 0 61 -38 61 -67c0 -71 -89 -100 -163 -127zM267 308c0 30 -17 56 -43 55c-43 0 -109 -49 -116 -168
c135 39 159 70 159 113zM141 499v1c0 18 14 34 31 34c16 0 26 -13 26 -36c0 -18 -14 -35 -31 -35c-16 0 -26 14 -26 36zM251 500v1c0 18 14 34 31 34c16 0 26 -13 26 -36c0 -18 -14 -35 -31 -35c-16 0 -26 14 -26 36z" />
    <glyph glyph-name="iacute" unicode="&#xed;" horiz-adv-x="237" 
d="M135 277h-1c8 51 4 60 -2 60c-13 0 -39 -6 -52 -6c-5 0 -7 1 -7 4c0 4 3 9 7 10c61 8 102 35 112 35c5 0 7 -13 2 -45l-37 -226c-10 -62 1 -79 12 -78c16 0 45 27 56 27c7 0 3 -13 -1 -16c-29 -22 -72 -54 -90 -53c-20 0 -35 59 -30 95zM156 417l94 110
c17 20 31 34 52 34c13 0 29 -9 29 -28c0 -16 -10 -26 -41 -47l-101 -69h-33z" />
    <glyph glyph-name="igrave" unicode="&#xec;" horiz-adv-x="237" 
d="M135 277h-1c8 51 4 60 -2 60c-13 0 -39 -6 -52 -6c-5 0 -7 1 -7 4c0 4 3 9 7 10c61 8 102 35 112 35c5 0 7 -13 2 -45l-37 -226c-10 -62 1 -79 12 -78c16 0 45 27 56 27c7 0 3 -13 -1 -16c-29 -22 -72 -54 -90 -53c-20 0 -35 59 -30 95zM206 417h-33l-101 69
c-30 21 -40 31 -40 47c0 19 15 28 28 29c21 0 35 -14 53 -35z" />
    <glyph glyph-name="icircumflex" unicode="&#xee;" horiz-adv-x="237" 
d="M135 277h-1c8 51 4 60 -2 60c-13 0 -39 -6 -52 -6c-5 0 -7 1 -7 4c0 4 3 9 7 10c61 8 102 35 112 35c5 0 7 -13 2 -45l-37 -226c-10 -62 1 -79 12 -78c16 0 45 27 56 27c7 0 3 -13 -1 -16c-29 -22 -72 -54 -90 -53c-20 0 -35 59 -30 95zM148 557h55l94 -140h-33l-88 92
l-88 -92h-33z" />
    <glyph glyph-name="idieresis" unicode="&#xef;" horiz-adv-x="237" 
d="M135 277h-1c8 51 4 60 -2 60c-13 0 -39 -6 -52 -6c-5 0 -7 1 -7 4c0 4 3 9 7 10c61 8 102 35 112 35c5 0 7 -13 2 -45l-37 -226c-10 -62 1 -79 12 -78c16 0 45 27 56 27c7 0 3 -13 -1 -16c-29 -22 -72 -54 -90 -53c-20 0 -35 59 -30 95zM84 499v1c0 18 14 34 31 34
c16 0 26 -13 26 -36c0 -18 -14 -35 -31 -35c-16 0 -26 14 -26 36zM194 500v1c0 18 14 34 31 34c16 0 26 -13 26 -36c0 -18 -14 -35 -31 -35c-16 0 -26 14 -26 36z" />
    <glyph glyph-name="ntilde" unicode="&#xf1;" horiz-adv-x="454" 
d="M135 277c8 51 3 60 -3 60c-13 0 -39 -6 -52 -6c-5 0 -7 1 -7 4c0 4 3 9 7 10c61 8 102 35 112 35c5 0 8 -11 2 -45l-16 -101c43 59 135 152 180 153c35 0 54 -50 41 -129l-25 -149c-10 -62 1 -79 13 -78c16 0 44 27 55 27c7 0 3 -13 -1 -16c-42 -32 -75 -54 -91 -54
c-20 0 -35 59 -29 96l24 150c12 75 15 112 -9 112c-28 0 -94 -47 -162 -137l-31 -188c-3 -19 -6 -21 -14 -21h-30c-6 0 -8 3 -6 17zM157 413h-1c12 56 39 91 81 90c44 0 64 -39 109 -39c17 0 33 12 42 43l24 1c-12 -55 -39 -91 -82 -91c-44 0 -64 39 -108 39
c-17 0 -33 -12 -43 -43h-22z" />
    <glyph glyph-name="oacute" unicode="&#xf3;" horiz-adv-x="385" 
d="M256 386v1c66 0 129 -34 129 -158c0 -92 -69 -241 -203 -241c-73 0 -129 53 -129 162c0 122 94 236 203 236zM106 165v-1c0 -82 21 -153 98 -153c80 0 125 110 124 211c0 103 -50 143 -94 143c-50 0 -128 -53 -128 -200zM237 417l95 110c17 20 31 34 50 34
c14 0 30 -9 30 -28c0 -16 -10 -26 -40 -47l-101 -69h-34z" />
    <glyph glyph-name="ograve" unicode="&#xf2;" horiz-adv-x="385" 
d="M256 386v1c66 0 129 -34 129 -158c0 -92 -69 -241 -203 -241c-73 0 -129 53 -129 162c0 122 94 236 203 236zM106 165v-1c0 -82 21 -153 98 -153c80 0 125 110 124 211c0 103 -50 143 -94 143c-50 0 -128 -53 -128 -200zM277 417h-33l-101 69c-30 21 -40 31 -41 47
c0 19 15 28 29 29c21 0 35 -14 52 -35z" />
    <glyph glyph-name="ocircumflex" unicode="&#xf4;" horiz-adv-x="385" 
d="M256 386v1c66 0 129 -34 129 -158c0 -92 -69 -241 -203 -241c-73 0 -129 53 -129 162c0 122 94 236 203 236zM106 165v-1c0 -82 21 -153 98 -153c80 0 125 110 124 211c0 103 -50 143 -94 143c-50 0 -128 -53 -128 -200zM230 557h55l93 -140h-33l-88 92l-88 -92h-33z" />
    <glyph glyph-name="odieresis" unicode="&#xf6;" horiz-adv-x="385" 
d="M256 386v1c66 0 129 -34 129 -158c0 -92 -69 -241 -203 -241c-73 0 -129 53 -129 162c0 122 94 236 203 236zM106 165v-1c0 -82 21 -153 98 -153c80 0 125 110 124 211c0 103 -50 143 -94 143c-50 0 -128 -53 -128 -200zM186 499v1c0 18 14 34 31 34c16 0 26 -13 26 -36
c0 -18 -14 -35 -31 -35c-16 0 -26 14 -26 36zM296 500v1c0 18 14 34 31 34c16 0 26 -13 26 -36c0 -18 -14 -35 -31 -35c-16 0 -26 14 -26 36z" />
    <glyph glyph-name="otilde" unicode="&#xf5;" horiz-adv-x="385" 
d="M256 386v1c66 0 129 -34 129 -158c0 -92 -69 -241 -203 -241c-73 0 -129 53 -129 162c0 122 94 236 203 236zM106 165v-1c0 -82 21 -153 98 -153c80 0 125 110 124 211c0 103 -50 143 -94 143c-50 0 -128 -53 -128 -200zM128 413c12 56 39 91 81 90c44 0 64 -39 109 -39
c17 0 33 12 42 43l22 1c-12 -55 -39 -91 -80 -91c-44 0 -64 39 -109 39c-18 0 -33 -12 -42 -43h-23z" />
    <glyph glyph-name="uacute" unicode="&#xfa;" horiz-adv-x="454" 
d="M163 141v-1c-12 -75 -15 -112 10 -111c28 0 88 49 161 139l31 186c3 20 6 21 14 21h29c6 0 9 -2 7 -18l-41 -248c-10 -63 1 -79 13 -78c16 0 44 27 55 27c7 0 3 -13 -1 -16c-40 -31 -75 -54 -91 -54c-20 0 -35 59 -29 96l10 58c-45 -60 -136 -154 -182 -153
c-35 0 -53 49 -40 127l26 159c8 51 3 62 -3 62c-13 0 -39 -6 -52 -6c-5 0 -7 1 -7 4c0 4 3 9 7 10c61 8 102 35 111 35c5 0 8 -12 3 -45zM257 416l95 110c17 20 31 34 50 34c14 0 30 -9 30 -28c0 -16 -10 -26 -40 -47l-101 -69h-34z" />
    <glyph glyph-name="ugrave" unicode="&#xf9;" horiz-adv-x="454" 
d="M163 141v-1c-12 -75 -15 -112 10 -111c28 0 88 49 161 139l31 186c3 20 6 21 14 21h29c6 0 9 -2 7 -18l-41 -248c-10 -63 1 -79 13 -78c16 0 44 27 55 27c7 0 3 -13 -1 -16c-40 -31 -75 -54 -91 -54c-20 0 -35 59 -29 96l10 58c-45 -60 -136 -154 -182 -153
c-35 0 -53 49 -40 127l26 159c8 51 3 62 -3 62c-13 0 -39 -6 -52 -6c-5 0 -7 1 -7 4c0 4 3 9 7 10c61 8 102 35 111 35c5 0 8 -12 3 -45zM310 416h-33l-101 69c-30 21 -40 31 -41 47c0 19 16 28 29 28c21 0 35 -14 52 -34z" />
    <glyph glyph-name="ucircumflex" unicode="&#xfb;" horiz-adv-x="454" 
d="M163 141v-1c-12 -75 -15 -112 10 -111c28 0 88 49 161 139l31 186c3 20 6 21 14 21h29c6 0 9 -2 7 -18l-41 -248c-10 -63 1 -79 13 -78c16 0 44 27 55 27c7 0 3 -13 -1 -16c-40 -31 -75 -54 -91 -54c-20 0 -35 59 -29 96l10 58c-45 -60 -136 -154 -182 -153
c-35 0 -53 49 -40 127l26 159c8 51 3 62 -3 62c-13 0 -39 -6 -52 -6c-5 0 -7 1 -7 4c0 4 3 9 7 10c61 8 102 35 111 35c5 0 8 -12 3 -45zM266 556h56l93 -140h-32l-89 92l-88 -92h-32z" />
    <glyph glyph-name="udieresis" unicode="&#xfc;" horiz-adv-x="454" 
d="M163 141v-1c-12 -75 -15 -112 10 -111c28 0 88 49 161 139l31 186c3 20 6 21 14 21h29c6 0 9 -2 7 -18l-41 -248c-10 -63 1 -79 13 -78c16 0 44 27 55 27c7 0 3 -13 -1 -16c-40 -31 -75 -54 -91 -54c-20 0 -35 59 -29 96l10 58c-45 -60 -136 -154 -182 -153
c-35 0 -53 49 -40 127l26 159c8 51 3 62 -3 62c-13 0 -39 -6 -52 -6c-5 0 -7 1 -7 4c0 4 3 9 7 10c61 8 102 35 111 35c5 0 8 -12 3 -45zM213 498v1c0 18 14 34 31 34c16 0 26 -13 26 -36c0 -18 -14 -35 -31 -35c-16 0 -26 14 -26 36zM323 499v1c0 18 14 34 31 34
c16 0 26 -13 26 -36c0 -18 -14 -35 -31 -35c-16 0 -26 14 -26 36z" />
    <glyph glyph-name="degree" unicode="&#xb0;" horiz-adv-x="274" 
d="M223 433c44 -38 65 -63 65 -98c0 -40 -33 -100 -114 -100c-62 0 -107 38 -107 91c0 41 24 82 104 104c-31 24 -52 45 -52 72c0 31 23 82 88 82c57 0 91 -33 90 -71c0 -38 -27 -62 -74 -80zM266 513h1c0 42 -33 60 -62 60c-38 0 -58 -30 -59 -56c0 -26 23 -44 64 -76
c43 16 56 47 56 72zM98 327c0 -33 20 -80 79 -79c53 0 82 39 83 71c0 38 -27 62 -75 101c-62 -17 -87 -58 -87 -93z" />
    <glyph glyph-name="cent" unicode="&#xa2;" horiz-adv-x="289" 
d="M163 147h-5c-41 0 -92 65 -92 160c0 138 107 214 173 234l6 28c2 13 9 18 17 18c6 0 8 -5 5 -17l-5 -24h7c36 0 59 -23 75 -58c3 -7 -2 -8 -17 -18c-13 -8 -19 -16 -24 -7c-11 19 -28 41 -47 52l-64 -329c4 -1 9 -1 13 -1c25 0 57 13 104 35c7 3 12 -7 5 -12
c-46 -29 -90 -50 -128 -58l-8 -36c-3 -14 -8 -17 -16 -17c-7 0 -9 7 -6 17zM234 519l1 1c-48 -4 -114 -91 -114 -205c0 -50 18 -100 51 -120z" />
    <glyph glyph-name="sterling" unicode="&#xa3;" horiz-adv-x="384" 
d="M187 290l-11 -103c-7 -57 -22 -107 -68 -149c30 12 54 17 76 17c33 0 102 -20 138 -21c16 0 36 2 50 27c4 7 6 9 11 9c6 0 4 -14 -45 -85c-67 12 -174 26 -206 26c-18 0 -56 -5 -88 -11c56 53 68 86 75 146l17 144h-74c-5 0 -7 2 -7 6c0 6 6 12 13 12h71l14 110
c16 125 109 153 151 154c49 0 114 -45 113 -57c0 -3 -8 -8 -19 -18c-10 -9 -16 -17 -20 -17s-11 17 -20 26c-22 22 -58 43 -85 43c-21 0 -57 -12 -71 -127l-13 -114h117c5 0 7 -2 7 -6c0 -6 -6 -12 -13 -12h-113z" />
    <glyph glyph-name="section" unicode="&#xa7;" horiz-adv-x="263" 
d="M261 590l-1 -1c5 3 8 -4 4 -6c-53 -33 -164 -99 -164 -217c0 -71 32 -120 86 -120c48 0 82 59 82 104c0 71 -42 95 -73 95c-22 0 -45 -16 -64 -36c-2 -3 -6 0 -4 4c18 28 59 60 89 60c38 0 83 -39 82 -99c0 -91 -64 -139 -119 -139c-65 0 -110 53 -110 126
c0 96 87 183 192 229z" />
    <glyph glyph-name="bullet" unicode="&#x2022;" horiz-adv-x="104" 
d="M44 184c0 19 13 41 31 41s29 -13 30 -36c0 -18 -14 -41 -33 -41c-17 0 -28 14 -28 36z" />
    <glyph glyph-name="germandbls" unicode="&#xdf;" horiz-adv-x="246" 
d="M120 175c-36 9 -65 39 -75 66c-2 3 -2 5 2 8c30 14 28 23 35 23c3 0 6 -2 6 -6c0 -6 -9 -12 -10 -26c0 -15 15 -41 45 -51l31 162c-44 28 -67 44 -67 86c0 49 39 84 99 84l2 9c2 6 3 9 7 10c4 0 8 -3 6 -10l-2 -10c24 -5 49 -18 63 -31c5 -4 -1 -5 -11 -13
c-12 -10 -13 -14 -17 -8c-11 15 -23 26 -39 31l-24 -125c52 -35 78 -51 78 -104c0 -56 -43 -98 -104 -98c-4 0 -9 1 -11 2l-3 -15c-1 -5 -4 -8 -7 -8c-4 0 -8 3 -7 8zM184 504h-1c-7 2 -12 2 -19 1c-33 0 -51 -29 -52 -58c0 -24 15 -41 48 -64zM135 186h-1c5 -1 10 -2 13 -2
c42 0 75 33 76 78c0 33 -16 50 -59 80z" />
    <glyph glyph-name="registered" unicode="&#xae;" horiz-adv-x="422" 
d="M276 615c104 0 187 -87 187 -193c0 -104 -86 -188 -191 -188c-106 0 -189 88 -189 193s88 188 193 188zM104 427h1c0 -93 74 -172 168 -172c93 0 170 76 170 168c0 93 -75 171 -168 171c-92 0 -171 -74 -171 -167zM242 419v-61c0 -26 3 -29 36 -29v-14h-111l-1 14
c35 0 38 3 38 28l1 137c0 27 -3 29 -38 29v13h83c35 0 117 -1 118 -55c0 -38 -49 -52 -75 -57c74 -23 44 -95 72 -95c11 0 19 18 19 38h12c0 -24 -9 -56 -46 -56c-75 0 -11 108 -82 108h-26zM323 484c0 23 -19 39 -52 39c-26 0 -29 -7 -29 -30v-58h23c40 0 58 13 58 49z" />
    <glyph glyph-name="copyright" unicode="&#xa9;" horiz-adv-x="419" 
d="M348 544h12v-91l-11 1c-7 39 -32 79 -75 79c-45 0 -69 -47 -69 -109c0 -51 24 -100 77 -100c30 0 56 27 72 52l11 -5c-27 -43 -56 -63 -99 -63c-59 0 -107 56 -107 120c0 68 54 119 109 119c38 0 56 -21 67 -21c8 0 13 8 13 18zM274 615c104 0 188 -87 189 -193
c0 -105 -88 -188 -192 -188c-106 0 -189 88 -190 192c0 106 88 189 193 189zM103 426c0 -92 75 -171 168 -171c92 0 171 76 171 168c0 93 -76 171 -168 171s-171 -74 -171 -168z" />
    <glyph glyph-name="trademark" unicode="&#x2122;" horiz-adv-x="726" 
d="M149 257v1c15 0 24 6 29 36l49 305c-73 0 -100 4 -112 -42c-4 -16 -6 -17 -9 -17s-5 2 -4 7c5 18 13 56 13 67c0 3 2 6 6 6s7 -9 31 -9h210c18 0 16 9 23 9c3 0 5 -1 5 -6c0 -8 -9 -50 -16 -72c-2 -5 -10 -3 -10 4c3 11 7 24 7 29c0 24 -76 24 -104 24l-50 -308
c-5 -31 -1 -34 14 -34l33 1c5 0 6 -2 6 -4c0 -4 -4 -8 -6 -8c-20 0 -31 1 -72 1c-30 0 -53 -1 -67 -1c-4 0 -6 1 -6 3c0 4 5 8 7 8h23zM706 553l-156 -269c-11 -19 -11 -28 -17 -28c-7 0 -1 18 -7 45l-53 247l-59 -230c-14 -57 -6 -61 13 -61l19 1c3 0 5 -1 6 -3
c0 -3 -4 -8 -9 -8c-9 0 -25 1 -44 1c-15 0 -23 -1 -29 -1c-5 0 -6 1 -7 3c0 3 1 7 9 8c12 2 17 12 25 45l70 270c-12 37 -30 32 -53 32c-2 0 -6 1 -6 3c0 4 4 8 9 8c6 0 21 -1 40 -1c16 0 26 1 36 1s7 -13 13 -41l50 -250l139 237c24 42 17 54 26 54c4 0 9 -1 14 -1
c17 0 31 1 44 1c4 0 5 -1 5 -3c0 -3 -3 -8 -6 -7c-16 0 -24 -6 -29 -37l-49 -296c-2 -13 1 -16 12 -16l21 1c5 0 6 -1 6 -4s-5 -7 -7 -7c-16 0 -33 1 -53 1c-16 0 -32 -1 -46 -1c-4 0 -5 1 -5 3c0 3 4 7 7 8c16 0 24 6 29 37z" />
    <glyph glyph-name="acute" unicode="&#xb4;" horiz-adv-x="218" 
d="M69 417l94 110c17 20 31 34 51 34c14 0 30 -9 30 -28c0 -16 -10 -26 -41 -47l-100 -69h-34z" />
    <glyph glyph-name="dieresis" unicode="&#xa8;" horiz-adv-x="287" 
d="M89 462c0 24 20 44 45 43c24 0 44 -20 44 -43c0 -25 -20 -45 -44 -45c-25 0 -45 20 -45 45zM244 462c0 24 20 44 43 43c25 0 45 -20 45 -43c0 -25 -20 -45 -44 -45s-44 20 -44 45z" />
    <glyph glyph-name="AE" unicode="&#xc6;" horiz-adv-x="881" 
d="M294 254h215l45 279zM542 598h-38c-6 0 -8 2 -7 6c0 5 6 11 10 12c27 0 86 -3 141 -4c111 0 232 3 232 4c0 -23 -8 -82 -16 -110c-3 -9 -17 -8 -17 2c0 5 5 23 5 36c0 24 9 49 -182 49h-39l-42 -258c16 -2 43 -2 82 -2c93 0 102 2 109 7s11 15 23 58c5 18 21 8 19 -3
c-14 -49 -25 -103 -27 -155c-1 -11 -20 -17 -20 -1c0 12 1 27 0 40c0 25 -27 38 -120 38c-23 0 -56 -1 -70 -2l-47 -292h54c219 0 217 27 227 72c10 49 12 52 17 52s10 -5 10 -11c0 -14 -13 -65 -22 -125c-2 -13 -8 -16 -16 -15c-16 0 -3 9 -177 9c-167 0 -151 -5 -202 -5
c-6 0 -8 2 -7 6c0 5 5 11 11 12c25 0 39 10 48 62l25 153h-229l-52 -58c-62 -69 -90 -115 -90 -141c0 -9 0 -17 22 -17l37 1c5 0 7 -3 7 -7c0 -5 -7 -11 -12 -11c-25 0 -49 2 -82 2c-25 0 -44 -2 -67 -2c-5 0 -5 3 -6 6c0 6 4 11 19 11c22 0 26 21 75 75l432 471
c5 30 2 35 -18 35z" />
    <glyph glyph-name="Oslash" unicode="&#xd8;" horiz-adv-x="670" 
d="M192 104l338 432c-37 40 -91 67 -163 67c-153 0 -232 -189 -232 -314c0 -77 22 -139 57 -185zM546 515l-338 -430c45 -47 105 -72 159 -72c146 0 244 160 244 292c0 64 -18 148 -65 210zM571 548h1c64 -55 107 -140 107 -235c0 -167 -135 -318 -314 -319
c-71 0 -131 23 -179 61l-41 -50c-7 -9 -12 -12 -20 -12s-14 7 -6 18l48 62c-63 60 -99 148 -99 237c0 110 97 312 310 312c65 0 125 -21 174 -59l36 47c7 9 14 12 21 11c8 0 14 -8 5 -18z" />
    <glyph glyph-name="infinity" unicode="&#x221e;" horiz-adv-x="403" 
d="M254 29l60 103c42 73 55 107 55 136c0 58 -34 85 -34 98c0 7 23 20 35 20c14 0 33 -40 33 -85c0 -31 -11 -67 -34 -106l-206 -350c-29 -50 -76 -106 -125 -106c-23 0 -33 5 -33 12c0 5 8 32 15 32c20 0 61 -12 107 36c14 15 36 53 69 114c17 30 18 38 13 62l-51 244
c-17 83 -51 114 -72 113c-18 0 -33 -16 -44 -16c-5 0 -8 7 -1 10c40 24 78 40 94 41c28 0 58 -70 74 -143zM223 417l94 110c17 20 31 34 51 34c14 0 29 -9 29 -28c0 -16 -10 -26 -40 -47l-101 -69h-33z" />
    <glyph glyph-name="lessequal" unicode="&#x2264;" horiz-adv-x="273" 
d="M293 593c4 0 5 -4 -3 -18c-6 -9 -11 -23 -11 -23h-145l-16 -95c22 6 48 11 70 11c56 0 108 -37 107 -103c0 -67 -60 -130 -142 -129c-43 0 -75 18 -86 57c-1 4 3 4 10 8c6 4 10 8 12 1c6 -28 26 -57 72 -57c67 0 102 60 102 111c0 36 -18 80 -78 80
c-49 0 -71 -22 -80 -22c-5 0 -8 6 -2 37l26 130h137c21 0 20 12 27 12z" />
    <glyph glyph-name="ordfeminine" unicode="&#xaa;" horiz-adv-x="268" 
d="M115 231h1c-5 -3 -8 3 -3 6c53 33 164 99 164 215c0 71 -32 120 -87 121c-48 0 -82 -59 -82 -103c0 -71 42 -96 73 -97c23 0 45 17 65 38c2 2 7 -1 3 -5c-17 -28 -59 -61 -87 -60c-38 0 -84 40 -84 99c0 91 64 139 120 139c66 0 110 -53 110 -124
c0 -97 -87 -185 -193 -229z" />
    <glyph glyph-name="ordmasculine" unicode="&#xba;" horiz-adv-x="309" 
d="M237 584v1c76 0 106 -81 106 -149c0 -90 -55 -201 -154 -201c-76 0 -105 81 -105 148c0 89 55 201 153 201zM114 386h1c0 -68 21 -137 82 -136c84 0 115 125 115 186c0 68 -21 137 -82 138c-85 0 -116 -124 -116 -188z" />
    <glyph glyph-name="ae" unicode="&#xe6;" horiz-adv-x="538" 
d="M500 308c0 30 -17 56 -44 55c-43 0 -108 -49 -115 -168c134 39 159 70 159 113zM102 140c0 -71 29 -112 49 -111c23 0 114 71 137 137l26 170c-19 8 -45 17 -70 17c-109 0 -142 -129 -142 -213zM287 121h-1c-72 -91 -124 -133 -160 -133c-47 0 -77 75 -77 137
c0 179 154 261 226 262c28 0 44 -12 52 -12c11 0 29 19 41 19c6 0 6 -6 5 -12l-9 -52c40 36 79 56 121 56c44 0 61 -38 60 -68c0 -71 -88 -99 -162 -126l-44 -15c-9 -86 18 -152 94 -152c22 0 59 11 99 32c11 6 13 -9 5 -13c-69 -36 -129 -56 -154 -56c-27 0 -89 40 -96 133
z" />
    <glyph glyph-name="oslash" unicode="&#xf8;" horiz-adv-x="385" 
d="M117 77l194 233c-18 38 -48 54 -77 54c-50 0 -128 -53 -128 -200c0 -31 4 -61 11 -87zM318 294l-194 -233c14 -31 40 -51 80 -51c80 0 125 110 125 212c0 29 -5 53 -11 72zM356 341h1c17 -25 28 -61 28 -112c0 -92 -69 -241 -203 -241c-35 0 -66 13 -88 37l-25 -31
c-7 -8 -25 -4 -12 11l27 31c-20 28 -31 66 -31 114c0 122 94 236 202 236c34 0 67 -9 90 -33l24 27c7 8 24 5 12 -9z" />
    <glyph glyph-name="exclamdown" unicode="&#xa1;" horiz-adv-x="159" 
d="M179 587l-46 -283c-6 -34 -7 -44 -7 -53h43c5 0 6 -3 6 -6c0 -4 -1 -6 -6 -6h-99c-5 0 -7 1 -7 5c0 9 11 6 15 7c10 4 18 11 26 60l34 211c5 29 1 45 -4 45c-6 0 -20 -3 -26 -2c-5 0 -5 6 0 7c23 1 50 7 71 15z" />
    <glyph glyph-name="radical" unicode="&#x221a;" horiz-adv-x="266" 
d="M182 417l-93 140h33l88 -93l88 93h33l-94 -140h-55z" />
    <glyph glyph-name="florin" unicode="&#x192;" horiz-adv-x="402" 
d="M318 357h-146l-70 -428c-22 -132 -77 -190 -133 -190c-14 0 -33 6 -33 11c0 11 13 31 22 31c7 0 22 -14 38 -13c23 0 37 40 47 104l80 485h-38c-4 0 -6 2 -6 7s5 11 13 11h33l9 53c21 122 95 212 186 212c12 0 48 -21 66 -40c22 27 53 48 98 48c27 0 54 -23 53 -36
c0 -4 -5 -7 -10 -12s-10 -10 -13 -10c-7 0 -27 42 -52 42c-43 0 -57 -50 -69 -122l-22 -135h39c4 0 6 -1 5 -6c0 -6 -5 -12 -12 -12h-35l-70 -428c-22 -132 -77 -190 -133 -190c-13 0 -32 6 -32 11c0 11 12 31 21 31c8 0 22 -14 38 -13c23 0 37 40 47 104zM364 566v1
c-14 16 -45 54 -65 54c-35 0 -89 -27 -112 -169l-13 -77h147l18 111c3 21 11 52 25 80z" />
    <glyph glyph-name="approxequal" unicode="&#x2248;" horiz-adv-x="211" 
d="M136 244h-2c-26 0 -56 39 -56 95c0 83 64 128 103 141l4 16c1 8 5 11 9 12c5 0 6 -4 5 -12l-4 -13h5c22 0 35 -14 45 -36c2 -4 -1 -4 -11 -10c-7 -4 -11 -9 -15 -4c-6 10 -16 24 -27 30l-39 -196c2 -1 5 -1 8 -1c15 0 33 8 62 19c4 3 8 -2 4 -5c-28 -17 -54 -30 -78 -35
l-4 -22c-1 -9 -5 -10 -10 -10c-4 0 -5 4 -3 11zM179 466h-1c-28 -2 -67 -54 -67 -122c0 -30 11 -60 30 -71z" />
    <glyph glyph-name="guillemotleft" unicode="&#xab;" horiz-adv-x="602" 
d="M374 566v1c-15 16 -46 54 -66 54c-35 0 -90 -27 -112 -169l-12 -77h146l18 111c3 20 9 51 26 80zM537 500l-1 1c0 18 14 34 32 34c15 0 25 -13 25 -36c0 -18 -13 -35 -30 -35c-16 0 -26 14 -26 36zM471 359h-95l-70 -428c-22 -132 -77 -190 -133 -190c-13 0 -32 6 -32 11
c0 11 12 31 22 31c7 0 21 -14 37 -13c24 0 37 40 47 104l79 485h-146l-70 -428c-22 -132 -77 -190 -133 -190c-13 0 -33 6 -33 11c0 11 13 31 22 31c8 0 22 -14 38 -13c23 0 37 40 47 104l80 485h-37c-5 0 -7 2 -7 7s6 11 13 11h34l8 52c19 123 95 213 186 213
c12 0 48 -21 66 -40c22 27 53 48 98 48c27 0 54 -23 53 -36c0 -4 -5 -7 -9 -12c-5 -5 -10 -10 -14 -10c-7 0 -27 42 -52 42c-43 0 -57 -50 -69 -122l-22 -135h90c58 0 72 5 82 5c5 0 7 -13 2 -45l-37 -226c-10 -62 1 -79 12 -78c16 0 44 27 55 27c8 0 4 -13 -1 -16
c-28 -22 -71 -54 -91 -54s-35 60 -29 96l35 209c9 58 3 64 -26 64z" />
    <glyph glyph-name="guillemotright" unicode="&#xbb;" horiz-adv-x="632" 
d="M515 640h-1c38 0 75 -21 87 -20c8 0 22 16 28 16c5 0 4 -23 -1 -54l-77 -473c-10 -62 1 -79 12 -78c16 0 44 27 55 27c7 0 4 -13 -1 -16c-42 -32 -75 -54 -91 -54c-18 0 -35 57 -29 96l70 433c14 84 -37 106 -63 106c-42 0 -67 -34 -85 -144l-16 -104h89c4 0 6 -1 6 -6
c0 -6 -5 -12 -13 -12h-85l-70 -428c-22 -132 -77 -190 -133 -190c-13 0 -33 6 -33 11c0 11 13 31 22 31c8 0 22 -14 38 -13c23 0 37 40 47 104l80 485h-147l-70 -428c-21 -132 -77 -190 -132 -190c-14 0 -33 6 -33 11c0 11 13 31 22 31c7 0 22 -14 37 -13c24 0 37 40 47 104
l80 485h-37c-4 0 -6 2 -6 7s5 11 13 11h33l8 52c19 123 96 213 187 213c11 0 46 -20 64 -39c23 28 59 39 98 39zM395 567c-15 18 -45 54 -64 54c-36 0 -89 -27 -112 -169l-13 -77h146l13 80c6 41 15 79 30 112z" />
    <glyph glyph-name="nbspace" unicode="&#xa0;" horiz-adv-x="234" 
 />
    <glyph glyph-name="Agrave" unicode="&#xc0;" horiz-adv-x="582" 
d="M199 254h217l-51 274zM29 0h1c-5 0 -7 3 -8 6c0 6 5 11 16 12c29 0 19 19 50 72l302 525c10 17 13 21 18 21c10 0 1 -12 5 -33l99 -546c6 -30 21 -40 44 -40c12 0 15 0 15 -6c0 -3 -5 -11 -14 -11c-24 0 -47 2 -74 2c-24 0 -50 -2 -78 -2c-5 0 -8 2 -8 6s5 11 14 12
c26 0 46 18 30 103l-21 112h-232l-34 -58c-22 -38 -45 -82 -45 -120c0 -26 15 -38 34 -38l37 1c6 0 8 -3 7 -7c0 -5 -7 -11 -12 -11c-24 0 -45 2 -78 2c-22 0 -45 -2 -68 -2zM424 649h-33l-101 70c-30 21 -40 31 -40 46c0 20 15 28 29 28c21 0 35 -13 52 -33z" />
    <glyph glyph-name="Atilde" unicode="&#xc3;" horiz-adv-x="582" 
d="M199 254h217l-51 274zM29 0h1c-5 0 -7 3 -8 6c0 6 5 11 16 12c29 0 19 19 50 72l302 525c10 17 13 21 18 21c10 0 1 -12 5 -33l99 -546c6 -30 21 -40 44 -40c12 0 15 0 15 -6c0 -3 -5 -11 -14 -11c-24 0 -47 2 -74 2c-24 0 -50 -2 -78 -2c-5 0 -8 2 -8 6s5 11 14 12
c26 0 46 18 30 103l-21 112h-232l-34 -58c-22 -38 -45 -82 -45 -120c0 -26 15 -38 34 -38l37 1c6 0 8 -3 7 -7c0 -5 -7 -11 -12 -11c-24 0 -45 2 -78 2c-22 0 -45 -2 -68 -2zM284 646v-1c11 56 38 91 81 91s63 -39 109 -39c17 0 32 12 41 43h23c-12 -56 -39 -91 -81 -90
c-43 0 -63 39 -109 39c-17 0 -33 -12 -42 -43h-22z" />
    <glyph glyph-name="Otilde" unicode="&#xd5;" horiz-adv-x="670" 
d="M377 622l1 -1c164 0 301 -137 301 -308c0 -167 -135 -318 -315 -319c-182 0 -296 157 -296 316c0 110 97 312 309 312zM136 288h-1c0 -179 124 -276 233 -276c146 0 244 160 244 293c0 116 -58 297 -244 297c-153 0 -232 -189 -232 -314zM269 645v-1c12 56 39 91 81 91
c43 0 63 -39 109 -39c17 0 33 12 42 43h21c-11 -56 -38 -91 -79 -90c-44 0 -64 39 -110 39c-17 0 -32 -12 -41 -43h-23z" />
    <glyph glyph-name="OE" unicode="&#x152;" horiz-adv-x="862" 
d="M453 34l81 494c-41 49 -101 75 -169 75c-153 0 -232 -189 -233 -314c0 -179 124 -276 234 -276c28 0 59 6 87 21zM629 613v-1c111 0 232 3 232 4c0 -23 -8 -82 -16 -110c-3 -9 -17 -8 -18 2c0 5 5 23 6 36c0 24 9 49 -182 49h-39l-42 -258c16 -2 43 -2 82 -2
c93 0 102 2 109 7s10 15 23 59c5 17 21 7 19 -4c-14 -49 -25 -103 -27 -155c-1 -11 -20 -17 -21 -1c0 12 1 27 1 40c0 25 -27 38 -120 38c-23 0 -56 -1 -70 -2l-48 -292h55c218 0 217 27 226 72c10 49 12 52 18 52c5 0 10 -5 10 -11c0 -14 -13 -65 -22 -125
c-2 -13 -8 -16 -16 -15c-16 0 -3 9 -176 9c-178 0 -205 -10 -250 -11c-183 0 -297 157 -297 316c0 110 98 312 310 312c60 0 131 -9 253 -9z" />
    <glyph glyph-name="oe" unicode="&#x153;" horiz-adv-x="574" 
d="M528 308c0 30 -17 56 -44 55c-42 0 -108 -49 -115 -168c134 39 159 70 159 113zM97 164v-1c0 -82 21 -153 97 -153c81 0 126 110 125 211c0 103 -50 143 -94 143c-50 0 -128 -53 -128 -200zM324 73c-34 -49 -84 -86 -151 -86c-73 0 -129 53 -129 162
c0 122 94 236 202 237c56 0 102 -24 121 -88c39 53 95 87 146 87c44 0 61 -38 61 -67c0 -71 -88 -100 -162 -127l-44 -15c-9 -86 18 -152 93 -152c22 0 59 11 99 32c11 6 13 -9 5 -13c-69 -36 -129 -56 -152 -56s-69 27 -89 86z" />
    <glyph glyph-name="endash" unicode="&#x2013;" horiz-adv-x="474" 
d="M436 209h-1c25 0 28 7 35 7c5 0 5 -3 -1 -24c-7 -28 -7 -18 -33 -18h-354c-25 0 -28 -8 -35 -9c-5 0 -5 4 1 26c7 28 7 18 34 18h354z" />
    <glyph glyph-name="emdash" unicode="&#x2014;" horiz-adv-x="558" 
d="M524 209h-1c25 0 29 7 35 7c5 0 5 -3 -1 -24c-7 -28 -7 -18 -33 -18h-436c-24 0 -28 -8 -36 -9c-5 0 -4 4 2 26c8 28 7 18 33 18h437z" />
    <glyph glyph-name="quotedblleft" unicode="&#x201c;" horiz-adv-x="252" 
d="M176 614l-1 1c5 2 9 -1 9 -6c0 -6 -37 -27 -37 -54c0 -11 23 -16 24 -40c0 -26 -16 -39 -34 -39c-16 0 -32 14 -32 38c0 35 19 78 71 100zM293 615l-1 1c4 2 8 -1 9 -6c0 -6 -37 -27 -37 -54c0 -11 23 -16 23 -40c0 -26 -15 -39 -34 -39c-16 0 -31 14 -30 37
c0 35 19 78 70 101z" />
    <glyph glyph-name="quotedblright" unicode="&#x201d;" horiz-adv-x="252" 
d="M226 477h1c-4 -2 -8 1 -8 6s36 26 36 53c0 11 -22 16 -23 40c0 26 15 39 34 40c16 0 31 -13 30 -38c0 -35 -19 -77 -70 -101zM110 477c-4 -2 -7 1 -8 6c0 5 36 26 36 53c0 11 -23 16 -23 40c0 26 16 39 33 40c16 0 32 -13 32 -38c0 -35 -19 -77 -70 -101z" />
    <glyph glyph-name="quoteleft" unicode="&#x2018;" horiz-adv-x="125" 
d="M161 614v1c4 2 8 -1 8 -6c0 -6 -36 -27 -36 -54c0 -11 22 -16 22 -40c0 -26 -15 -39 -33 -39c-16 0 -31 14 -31 37c0 35 19 78 70 101z" />
    <glyph glyph-name="quoteright" unicode="&#x2019;" horiz-adv-x="125" 
d="M96 477h1c-4 -2 -8 1 -8 6s36 26 36 53c0 11 -22 16 -23 40c0 26 15 39 34 40c16 0 31 -13 30 -38c0 -35 -19 -77 -70 -101z" />
    <glyph glyph-name="ydieresis" unicode="&#xff;" horiz-adv-x="403" 
d="M254 29l60 103c42 73 55 107 55 136c0 58 -34 85 -34 98c0 7 23 20 35 20c14 0 33 -40 33 -85c0 -31 -11 -67 -34 -106l-206 -350c-29 -50 -76 -106 -125 -106c-23 0 -33 5 -33 12c0 5 8 32 15 32c20 0 61 -12 107 36c14 15 36 53 69 114c17 30 18 38 13 62l-51 244
c-17 83 -51 114 -72 113c-18 0 -33 -16 -44 -16c-5 0 -8 7 -1 10c40 24 78 40 94 41c28 0 58 -70 74 -143zM115 462h1c0 24 20 44 44 43c24 0 44 -20 44 -43c0 -25 -20 -45 -44 -45c-25 0 -45 20 -45 45zM271 462c0 24 20 44 44 43c25 0 45 -20 45 -43
c0 -25 -20 -45 -45 -45c-24 0 -44 20 -44 45z" />
    <glyph glyph-name="Ydieresis" unicode="&#x178;" horiz-adv-x="533" 
d="M484 598h-30c-6 0 -8 3 -8 6c0 6 7 11 13 12c27 0 36 -2 72 -3c25 0 42 2 65 3c5 0 7 -3 7 -6c0 -7 -7 -12 -11 -12c-24 0 -31 -6 -52 -32l-182 -229c-15 -19 -17 -25 -19 -37l-42 -257c-3 -20 2 -26 18 -26l39 1c6 0 8 -3 7 -7c0 -5 -7 -11 -11 -11c-27 0 -56 2 -90 2
c-27 0 -53 -2 -75 -2c-4 0 -8 3 -8 5c0 7 7 12 13 13c24 0 38 9 46 62l34 200c5 33 4 37 -6 58l-106 215c-20 41 -27 45 -49 45h-11c-6 0 -8 3 -8 6c0 6 7 11 13 12c27 0 55 -2 89 -3c27 0 52 2 75 3c5 0 7 -3 6 -6c0 -7 -7 -12 -12 -12c-28 0 -52 -22 -27 -69l98 -187
l148 182c47 58 26 74 4 74zM342 649l93 111c17 20 31 33 52 33c14 0 29 -8 29 -28c0 -15 -10 -25 -41 -46l-100 -70h-33z" />
    <glyph glyph-name="fraction" unicode="&#x2044;" horiz-adv-x="533" 
d="M484 598h-30c-6 0 -8 3 -8 6c0 6 7 11 13 12c27 0 36 -2 72 -3c25 0 42 2 65 3c5 0 7 -3 7 -6c0 -7 -7 -12 -11 -12c-24 0 -31 -6 -52 -32l-182 -229c-15 -19 -17 -25 -19 -37l-42 -257c-3 -20 2 -26 18 -26l39 1c6 0 8 -3 7 -7c0 -5 -7 -11 -11 -11c-27 0 -56 2 -90 2
c-27 0 -53 -2 -75 -2c-4 0 -8 3 -8 5c0 7 7 12 13 13c24 0 38 9 46 62l34 200c5 33 4 37 -6 58l-106 215c-20 41 -27 45 -49 45h-11c-6 0 -8 3 -8 6c0 6 7 11 13 12c27 0 55 -2 89 -3c27 0 52 2 75 3c5 0 7 -3 6 -6c0 -7 -7 -12 -12 -12c-28 0 -52 -22 -27 -69l98 -187
l148 182c47 58 26 74 4 74zM285 706v1c0 18 14 34 31 34c16 0 26 -13 26 -36c0 -18 -14 -35 -31 -35c-16 0 -26 14 -26 36zM395 707v1c0 18 14 34 31 34c16 0 26 -13 26 -36c0 -18 -14 -35 -31 -35c-16 0 -26 14 -26 36z" />
    <glyph glyph-name="currency" unicode="&#xa4;" horiz-adv-x="296" 
d="M122 270l102 -4c20 -1 44 1 53 16c7 13 9 29 17 30c2 0 2 -3 1 -6c0 -7 -8 -23 -13 -47c-8 -29 -6 -35 -13 -35c-9 0 -1 15 -13 15h-156c-23 0 -24 -8 -28 -9c-5 0 -8 5 -2 12l137 127c52 48 78 81 78 118c0 28 -23 71 -78 71c-44 0 -82 -33 -81 -68c0 -22 19 -36 18 -38
c0 -3 -17 -16 -22 -17c-6 0 -16 27 -16 43c0 51 58 106 121 106c42 0 92 -34 91 -95c0 -39 -22 -61 -61 -96z" />
    <glyph glyph-name="guilsinglleft" unicode="&#x2039;" horiz-adv-x="276" 
d="M218 442c44 -18 67 -44 67 -89c0 -69 -63 -118 -130 -118c-52 0 -102 33 -102 68c0 5 3 6 10 8c6 2 12 2 13 -2c9 -28 26 -64 81 -63c62 0 97 53 97 95c0 52 -43 81 -73 82c-22 0 -37 -16 -37 -9c0 5 2 8 10 9c37 16 100 39 99 88c0 30 -19 48 -54 47
c-39 0 -64 -20 -81 -45c-2 -2 -8 1 -7 4c24 51 63 67 109 68c44 0 64 -38 64 -71c0 -40 -34 -59 -66 -72z" />
    <glyph glyph-name="guilsinglright" unicode="&#x203a;" horiz-adv-x="290" 
d="M103 391h138l29 173s-38 -34 -88 -87zM256 304c-5 -34 -5 -44 -5 -53h41c5 0 7 -3 8 -6c0 -4 -2 -6 -8 -6h-98c-5 0 -8 1 -8 5c0 9 12 6 16 7c10 4 17 11 25 60l8 51h-171l110 121c67 70 120 120 120 119c5 3 6 5 8 5c3 0 3 -2 2 -7l-34 -209c34 0 31 22 37 22
c5 0 5 -4 -8 -30c-5 -11 -11 -21 -11 -21h-22z" />
    <glyph glyph-name="fi" unicode="&#xfb01;" horiz-adv-x="381" 
d="M324 499v1c0 18 14 34 31 34c16 0 26 -13 26 -36c0 -18 -14 -35 -31 -35c-16 0 -26 14 -26 36zM280 649c27 0 54 -23 54 -36c0 -4 -5 -7 -10 -12s-10 -10 -12 -10c-8 0 -28 42 -54 41c-43 0 -57 -49 -68 -121l-22 -135h90c58 0 72 5 82 5c5 0 8 -13 2 -45l-37 -226
c-10 -62 1 -79 13 -78c16 0 44 27 54 27c7 0 3 -13 -1 -16c-28 -22 -72 -54 -90 -53c-20 0 -35 59 -29 95l32 209c9 58 4 64 -25 64h-94l-71 -428c-22 -132 -77 -190 -132 -190c-14 0 -33 6 -33 11c0 11 13 31 22 31c7 0 22 -14 37 -13c24 0 37 40 48 104l79 485h-37
c-4 0 -6 2 -5 7c0 5 5 11 11 11h34l17 110c13 83 59 163 145 163z" />
    <glyph glyph-name="fl" unicode="&#xfb02;" horiz-adv-x="429" 
d="M301 623c-43 0 -68 -34 -85 -144l-16 -104h89c5 0 6 -1 5 -6c0 -6 -5 -12 -11 -12h-86l-71 -428c-22 -132 -77 -190 -131 -190c-14 0 -33 6 -34 11c0 11 13 31 23 31c7 0 21 -14 36 -13c24 0 37 40 48 104l79 485h-37c-5 0 -6 2 -5 7c0 5 5 11 11 11h34l13 79
c19 121 51 186 149 186c37 0 74 -21 85 -20c8 0 23 16 28 16c6 0 5 -23 0 -54l-77 -473c-10 -62 1 -79 12 -78c16 0 44 27 55 27c8 0 4 -13 -1 -16c-41 -32 -74 -54 -91 -54c-18 0 -35 57 -29 96l70 433c14 84 -37 106 -63 106z" />
    <glyph glyph-name="daggerdbl" unicode="&#x2021;" horiz-adv-x="284" 
d="M116 593l1 -1c8 0 8 -10 36 -10h156c16 0 17 4 24 4c3 0 4 -4 -2 -14l-164 -233c-21 -30 -26 -43 -26 -64c0 -19 4 -25 3 -31c0 -3 -5 -2 -15 -5c-5 -1 -7 -3 -12 -2c-3 0 -5 18 -5 26c0 21 12 43 29 67l161 223l-127 3c-60 2 -61 -14 -69 -41c-1 -5 -4 -7 -7 -7
c-2 0 -4 1 -4 4s4 16 8 35c9 38 8 46 13 46z" />
    <glyph glyph-name="periodcentered" unicode="&#xb7;" horiz-adv-x="194" 
d="M91 0h23l-44 -62c60 22 129 -5 129 -62c0 -50 -43 -84 -106 -84c-36 0 -74 10 -102 21l13 25c20 -9 55 -16 83 -16c43 0 67 24 67 51c0 32 -29 45 -55 46c-16 0 -34 -4 -54 -12l-15 12z" />
    <glyph glyph-name="Acircumflex" unicode="&#xc2;" horiz-adv-x="582" 
d="M199 254h217l-51 274zM29 0h1c-5 0 -7 3 -8 6c0 6 5 11 16 12c29 0 19 19 50 72l302 525c10 17 13 21 18 21c10 0 1 -12 5 -33l99 -546c6 -30 21 -40 44 -40c12 0 15 0 15 -6c0 -3 -5 -11 -14 -11c-24 0 -47 2 -74 2c-24 0 -50 -2 -78 -2c-5 0 -8 2 -8 6s5 11 14 12
c26 0 46 18 30 103l-21 112h-232l-34 -58c-22 -38 -45 -82 -45 -120c0 -26 15 -38 34 -38l37 1c6 0 8 -3 7 -7c0 -5 -7 -11 -12 -11c-24 0 -45 2 -78 2c-22 0 -45 -2 -68 -2zM385 789h56l93 -140h-33l-88 93l-89 -93h-32z" />
    <glyph glyph-name="Ecircumflex" unicode="&#xca;" horiz-adv-x="503" 
d="M52 0c-7 0 -8 2 -8 6c0 5 5 11 11 11c26 0 40 10 48 63l81 492c3 21 -2 26 -19 26h-38c-6 0 -8 2 -8 6c0 5 6 11 11 12c27 0 86 -3 141 -4c111 0 232 3 232 4c0 -23 -8 -82 -16 -110c-3 -9 -17 -8 -18 2c0 5 5 23 6 36c0 24 9 49 -182 49h-39l-42 -258c16 -2 43 -2 82 -2
c93 0 102 2 109 7s10 15 23 59c5 17 21 7 19 -4c-14 -49 -25 -103 -28 -155c-1 -11 -20 -17 -20 -1c0 12 1 27 1 40c0 25 -27 38 -120 38c-23 0 -56 -1 -70 -2l-48 -292h55c218 0 217 27 226 72c10 49 12 52 18 52c5 0 10 -5 10 -11c0 -14 -13 -65 -22 -125
c-2 -13 -8 -16 -16 -15c-16 0 -3 9 -177 9c-167 0 -151 -5 -202 -5zM296 789h56l92 -140h-32l-89 93l-88 -93h-32z" />
    <glyph glyph-name="Aacute" unicode="&#xc1;" horiz-adv-x="582" 
d="M199 254h217l-51 274zM29 0h1c-5 0 -7 3 -8 6c0 6 5 11 16 12c29 0 19 19 50 72l302 525c10 17 13 21 18 21c10 0 1 -12 5 -33l99 -546c6 -30 21 -40 44 -40c12 0 15 0 15 -6c0 -3 -5 -11 -14 -11c-24 0 -47 2 -74 2c-24 0 -50 -2 -78 -2c-5 0 -8 2 -8 6s5 11 14 12
c26 0 46 18 30 103l-21 112h-232l-34 -58c-22 -38 -45 -82 -45 -120c0 -26 15 -38 34 -38l37 1c6 0 8 -3 7 -7c0 -5 -7 -11 -12 -11c-24 0 -45 2 -78 2c-22 0 -45 -2 -68 -2zM393 649l93 111c17 20 31 33 52 33c14 0 29 -8 29 -28c0 -15 -10 -25 -40 -46l-101 -70h-33z" />
    <glyph glyph-name="Edieresis" unicode="&#xcb;" horiz-adv-x="503" 
d="M52 0c-7 0 -8 2 -8 6c0 5 5 11 11 11c26 0 40 10 48 63l81 492c3 21 -2 26 -19 26h-38c-6 0 -8 2 -8 6c0 5 6 11 11 12c27 0 86 -3 141 -4c111 0 232 3 232 4c0 -23 -8 -82 -16 -110c-3 -9 -17 -8 -18 2c0 5 5 23 6 36c0 24 9 49 -182 49h-39l-42 -258c16 -2 43 -2 82 -2
c93 0 102 2 109 7s10 15 23 59c5 17 21 7 19 -4c-14 -49 -25 -103 -28 -155c-1 -11 -20 -17 -20 -1c0 12 1 27 1 40c0 25 -27 38 -120 38c-23 0 -56 -1 -70 -2l-48 -292h55c218 0 217 27 226 72c10 49 12 52 18 52c5 0 10 -5 10 -11c0 -14 -13 -65 -22 -125
c-2 -13 -8 -16 -16 -15c-16 0 -3 9 -177 9c-167 0 -151 -5 -202 -5zM279 708l-1 1c0 18 14 34 31 34c16 0 26 -13 27 -36c0 -18 -14 -35 -31 -35c-16 0 -26 14 -26 36zM388 709l-1 1c0 18 14 34 31 34c16 0 26 -13 27 -36c0 -18 -14 -35 -31 -35c-16 0 -26 14 -26 36z" />
    <glyph glyph-name="Egrave" unicode="&#xc8;" horiz-adv-x="503" 
d="M52 0c-7 0 -8 2 -8 6c0 5 5 11 11 11c26 0 40 10 48 63l81 492c3 21 -2 26 -19 26h-38c-6 0 -8 2 -8 6c0 5 6 11 11 12c27 0 86 -3 141 -4c111 0 232 3 232 4c0 -23 -8 -82 -16 -110c-3 -9 -17 -8 -18 2c0 5 5 23 6 36c0 24 9 49 -182 49h-39l-42 -258c16 -2 43 -2 82 -2
c93 0 102 2 109 7s10 15 23 59c5 17 21 7 19 -4c-14 -49 -25 -103 -28 -155c-1 -11 -20 -17 -20 -1c0 12 1 27 1 40c0 25 -27 38 -120 38c-23 0 -56 -1 -70 -2l-48 -292h55c218 0 217 27 226 72c10 49 12 52 18 52c5 0 10 -5 10 -11c0 -14 -13 -65 -22 -125
c-2 -13 -8 -16 -16 -15c-16 0 -3 9 -177 9c-167 0 -151 -5 -202 -5zM319 649h-34l-101 70c-30 21 -39 31 -40 46c0 20 15 28 29 28c21 0 34 -13 51 -33z" />
    <glyph glyph-name="Iacute" unicode="&#xcd;" horiz-adv-x="262" 
d="M244 536l-80 -493c-3 -21 1 -26 18 -26l38 1c6 0 8 -2 8 -7s-6 -11 -12 -11c-27 0 -56 2 -90 2c-27 0 -51 -2 -74 -2c-7 0 -8 2 -8 6c0 5 5 11 11 11c26 0 40 10 48 63l81 492c3 21 -2 26 -19 26h-38c-6 0 -8 2 -8 6c0 5 6 11 12 12c27 0 56 -2 90 -3c27 0 52 2 74 3
c7 0 9 -2 9 -7s-6 -11 -12 -11c-26 0 -40 -10 -48 -62zM194 649l95 111c17 20 31 33 51 33c13 0 29 -8 29 -28c0 -15 -10 -25 -40 -46l-101 -70h-34z" />
    <glyph glyph-name="Icircumflex" unicode="&#xce;" horiz-adv-x="262" 
d="M244 536l-80 -493c-3 -21 1 -26 18 -26l38 1c6 0 8 -2 8 -7s-6 -11 -12 -11c-27 0 -56 2 -90 2c-27 0 -51 -2 -74 -2c-7 0 -8 2 -8 6c0 5 5 11 11 11c26 0 40 10 48 63l81 492c3 21 -2 26 -19 26h-38c-6 0 -8 2 -8 6c0 5 6 11 12 12c27 0 56 -2 90 -3c27 0 52 2 74 3
c7 0 9 -2 9 -7s-6 -11 -12 -11c-26 0 -40 -10 -48 -62zM201 789h55l94 -140h-33l-88 93l-88 -93h-33z" />
    <glyph glyph-name="Idieresis" unicode="&#xcf;" horiz-adv-x="262" 
d="M244 536l-80 -493c-3 -21 1 -26 18 -26l38 1c6 0 8 -2 8 -7s-6 -11 -12 -11c-27 0 -56 2 -90 2c-27 0 -51 -2 -74 -2c-7 0 -8 2 -8 6c0 5 5 11 11 11c26 0 40 10 48 63l81 492c3 21 -2 26 -19 26h-38c-6 0 -8 2 -8 6c0 5 6 11 12 12c27 0 56 -2 90 -3c27 0 52 2 74 3
c7 0 9 -2 9 -7s-6 -11 -12 -11c-26 0 -40 -10 -48 -62zM141 708v1c0 18 14 34 31 34c16 0 26 -13 26 -36c0 -18 -14 -35 -31 -35c-16 0 -26 14 -26 36zM251 709v1c0 18 14 34 31 34c16 0 26 -13 26 -36c0 -18 -14 -35 -31 -35c-16 0 -26 14 -26 36z" />
    <glyph glyph-name="Igrave" unicode="&#xcc;" horiz-adv-x="262" 
d="M244 536l-80 -493c-3 -21 1 -26 18 -26l38 1c6 0 8 -2 8 -7s-6 -11 -12 -11c-27 0 -56 2 -90 2c-27 0 -51 -2 -74 -2c-7 0 -8 2 -8 6c0 5 5 11 11 11c26 0 40 10 48 63l81 492c3 21 -2 26 -19 26h-38c-6 0 -8 2 -8 6c0 5 6 11 12 12c27 0 56 -2 90 -3c27 0 52 2 74 3
c7 0 9 -2 9 -7s-6 -11 -12 -11c-26 0 -40 -10 -48 -62zM244 649h-34l-101 70c-30 21 -40 31 -41 46c0 20 16 28 29 28c21 0 35 -13 52 -33z" />
    <glyph glyph-name="Oacute" unicode="&#xd3;" horiz-adv-x="670" 
d="M377 622l1 -1c164 0 301 -137 301 -308c0 -167 -135 -318 -315 -319c-182 0 -296 157 -296 316c0 110 97 312 309 312zM136 288h-1c0 -179 124 -276 233 -276c146 0 244 160 244 293c0 116 -58 297 -244 297c-153 0 -232 -189 -232 -314zM362 648l93 111
c17 20 31 33 52 33c14 0 29 -8 29 -28c0 -15 -10 -25 -41 -46l-100 -70h-33z" />
    <glyph glyph-name="Ocircumflex" unicode="&#xd4;" horiz-adv-x="670" 
d="M377 622l1 -1c164 0 301 -137 301 -308c0 -167 -135 -318 -315 -319c-182 0 -296 157 -296 316c0 110 97 312 309 312zM136 288h-1c0 -179 124 -276 233 -276c146 0 244 160 244 293c0 116 -58 297 -244 297c-153 0 -232 -189 -232 -314zM353 788h56l94 -140h-33l-88 93
l-88 -93h-33z" />
    <glyph glyph-name="Ograve" unicode="&#xd2;" horiz-adv-x="670" 
d="M377 622l1 -1c164 0 301 -137 301 -308c0 -167 -135 -318 -315 -319c-182 0 -296 157 -296 316c0 110 97 312 309 312zM136 288h-1c0 -179 124 -276 233 -276c146 0 244 160 244 293c0 116 -58 297 -244 297c-153 0 -232 -189 -232 -314zM402 648h-34l-101 70
c-30 21 -40 31 -40 46c0 20 16 28 29 28c21 0 35 -13 52 -33z" />
    <glyph glyph-name="Uacute" unicode="&#xda;" horiz-adv-x="626" 
d="M582 511h-1c14 83 -5 87 -29 87h-39c-7 0 -8 4 -8 6c0 6 7 11 13 12c25 0 41 -2 75 -3c27 0 45 2 68 3c5 0 8 -2 7 -6c0 -7 -7 -12 -12 -12c-25 0 -39 -12 -47 -62l-55 -337c-25 -154 -134 -204 -235 -205c-158 0 -214 100 -192 234l57 345c3 19 0 25 -18 25h-39
c-6 0 -8 3 -8 6c0 5 6 11 12 12c27 0 56 -2 90 -3c27 0 53 2 75 3c5 0 8 -3 8 -6c0 -7 -7 -12 -12 -12c-26 0 -40 -10 -48 -62l-53 -324c-14 -88 23 -174 151 -173c104 0 171 52 190 168zM385 649l95 111c17 20 31 33 51 33c13 0 29 -8 29 -28c0 -15 -10 -25 -40 -46
l-101 -70h-34z" />
    <glyph glyph-name="Ucircumflex" unicode="&#xdb;" horiz-adv-x="626" 
d="M582 511h-1c14 83 -5 87 -29 87h-39c-7 0 -8 4 -8 6c0 6 7 11 13 12c25 0 41 -2 75 -3c27 0 45 2 68 3c5 0 8 -2 7 -6c0 -7 -7 -12 -12 -12c-25 0 -39 -12 -47 -62l-55 -337c-25 -154 -134 -204 -235 -205c-158 0 -214 100 -192 234l57 345c3 19 0 25 -18 25h-39
c-6 0 -8 3 -8 6c0 5 6 11 12 12c27 0 56 -2 90 -3c27 0 53 2 75 3c5 0 8 -3 8 -6c0 -7 -7 -12 -12 -12c-26 0 -40 -10 -48 -62l-53 -324c-14 -88 23 -174 151 -173c104 0 171 52 190 168zM404 789h56l92 -140h-32l-88 93l-89 -93h-32z" />
    <glyph glyph-name="Ugrave" unicode="&#xd9;" horiz-adv-x="626" 
d="M582 511h-1c14 83 -5 87 -29 87h-39c-7 0 -8 4 -8 6c0 6 7 11 13 12c25 0 41 -2 75 -3c27 0 45 2 68 3c5 0 8 -2 7 -6c0 -7 -7 -12 -12 -12c-25 0 -39 -12 -47 -62l-55 -337c-25 -154 -134 -204 -235 -205c-158 0 -214 100 -192 234l57 345c3 19 0 25 -18 25h-39
c-6 0 -8 3 -8 6c0 5 6 11 12 12c27 0 56 -2 90 -3c27 0 53 2 75 3c5 0 8 -3 8 -6c0 -7 -7 -12 -12 -12c-26 0 -40 -10 -48 -62l-53 -324c-14 -88 23 -174 151 -173c104 0 171 52 190 168zM427 649h-34l-100 70c-30 21 -40 31 -41 46c0 20 15 28 29 28c21 0 34 -13 51 -33z
" />
    <glyph glyph-name="dotlessi" unicode="&#x131;" horiz-adv-x="237" 
d="M135 277h-1c8 51 4 60 -2 60c-13 0 -39 -6 -52 -6c-5 0 -7 1 -7 4c0 4 3 9 7 10c61 8 102 35 112 35c5 0 7 -13 2 -45l-37 -226c-10 -62 1 -79 12 -78c16 0 45 27 56 27c7 0 3 -13 -1 -16c-29 -22 -72 -54 -90 -53c-20 0 -35 59 -30 95z" />
    <glyph glyph-name="circumflex" unicode="&#x2c6;" horiz-adv-x="259" 
d="M179 789h55l93 -140h-33l-88 93l-88 -93h-33z" />
    <glyph glyph-name="tilde" unicode="&#x2dc;" horiz-adv-x="256" 
d="M95 646l1 -1c12 56 39 91 80 91c44 0 64 -39 109 -39c18 0 33 12 42 43h23c-12 -56 -39 -91 -81 -90c-44 0 -64 39 -109 39c-17 0 -33 -12 -42 -43h-23z" />
    <glyph glyph-name="ring" unicode="&#x2da;" horiz-adv-x="213" 
d="M91 502l-1 -1c0 47 38 85 84 86c48 0 86 -38 87 -84c0 -48 -38 -86 -85 -87c-47 0 -85 38 -85 86zM124 501c0 -29 22 -51 50 -51c29 0 51 22 51 51c0 28 -22 50 -51 50c-28 0 -50 -22 -50 -50z" />
    <glyph glyph-name="space" unicode=" " horiz-adv-x="234" 
 />
  </font>
</defs>
</svg>
